<svg width="18" height="19" viewBox="0 0 18 19" fill="none" xmlns="http://www.w3.org/2000/svg">
<path d="M9.64823 0.95L14.8927 3.27889C16.4038 3.94556 16.4038 5.04778 14.8927 5.71444L9.64823 8.04333C9.05267 8.31 8.0749 8.31 7.47934 8.04333L2.2349 5.71444C0.723785 5.04778 0.723785 3.94556 2.2349 3.27889L7.47934 0.95C8.0749 0.683333 9.05267 0.683333 9.64823 0.95Z" stroke="#5C6972" stroke-width="1.5" stroke-linecap="round" stroke-linejoin="round"/>
<path d="M0.75 8.1322C0.75 8.87887 1.31 9.74109 1.99444 10.0433L8.03 12.7278C8.49222 12.9322 9.01667 12.9322 9.47 12.7278L15.5056 10.0433C16.19 9.74109 16.75 8.87887 16.75 8.1322" stroke="#5C6972" stroke-width="1.5" stroke-linecap="round" stroke-linejoin="round"/>
<path d="M0.75 12.5767C0.75 13.4033 1.23889 14.15 1.99444 14.4878L8.03 17.1722C8.49222 17.3767 9.01667 17.3767 9.47 17.1722L15.5056 14.4878C16.2611 14.15 16.75 13.4033 16.75 12.5767" stroke="#5C6972" stroke-width="1.5" stroke-linecap="round" stroke-linejoin="round"/>
</svg>
