<svg width="20" height="21" viewBox="0 0 20 21" fill="none" xmlns="http://www.w3.org/2000/svg">
<path d="M9.06978 10.4364C11.7446 10.4364 13.913 8.26805 13.913 5.59322C13.913 2.91838 11.7446 0.75 9.06978 0.75C6.39494 0.75 4.22656 2.91838 4.22656 5.59322C4.22656 8.26805 6.39494 10.4364 9.06978 10.4364Z" stroke="#5C6972" stroke-width="1.5" stroke-linecap="round" stroke-linejoin="round"/>
<path d="M16.0531 14.0592L12.6241 17.4882C12.4885 17.6239 12.3626 17.8757 12.3335 18.0597L12.1495 19.3674C12.0817 19.842 12.411 20.1713 12.8856 20.1035L14.1933 19.9195C14.3773 19.8904 14.6389 19.7645 14.7648 19.6289L18.1938 16.1999C18.7847 15.6091 19.0656 14.9213 18.1938 14.0495C17.3317 13.1874 16.644 13.4683 16.0531 14.0592Z" stroke="#5C6972" stroke-width="1.5" stroke-miterlimit="10" stroke-linecap="round" stroke-linejoin="round"/>
<path d="M15.5586 14.5532C15.8492 15.5994 16.6628 16.413 17.709 16.7036" stroke="#5C6972" stroke-width="1.5" stroke-miterlimit="10" stroke-linecap="round" stroke-linejoin="round"/>
<path d="M0.75 20.1229C0.75 16.3743 4.4793 13.3424 9.07067 13.3424C10.0781 13.3424 11.0467 13.4877 11.9475 13.7589" stroke="#5C6972" stroke-width="1.5" stroke-linecap="round" stroke-linejoin="round"/>
</svg>
