<svg width="60" height="60" viewBox="0 0 60 60" fill="none" xmlns="http://www.w3.org/2000/svg">
<g clip-path="url(#clip0_109_296)">
<path d="M37.2211 5.97558L39.8494 1.5946C40.1484 1.09566 39.9873 0.449358 39.4884 0.150416C38.9884 -0.149579 38.3431 0.011471 38.0442 0.511462L35.2706 5.13454C33.619 4.54718 31.8506 4.21034 30.0001 4.21034C28.1496 4.21034 26.3812 4.54718 24.7297 5.13454L21.9561 0.511462C21.6571 0.011471 21.0108 -0.148526 20.5119 0.150416C20.0129 0.449358 19.8519 1.09566 20.1508 1.5946L22.7792 5.97558C17.6982 8.60185 14.2109 13.8965 14.2109 20.0006C14.2109 20.5827 14.6825 21.0532 15.2636 21.0532H44.7367C45.3178 21.0532 45.7893 20.5827 45.7893 20.0006C45.7883 13.8975 42.302 8.6029 37.2211 5.97558ZM16.3562 18.948C16.8951 11.8923 22.8087 6.31662 30.0001 6.31662C37.1916 6.31662 43.1052 11.8923 43.6441 18.948H16.3562Z" fill="#4BF0C5"/>
<path d="M37.3447 11.9619H35.9573C35.5742 11.9619 35.2637 12.2724 35.2637 12.6556V14.0429C35.2637 14.4261 35.5742 14.7366 35.9573 14.7366H37.3457C37.7289 14.7366 38.0394 14.4261 38.0394 14.0429V12.6556C38.0394 12.2724 37.7278 11.9619 37.3447 11.9619Z" fill="#4BF0C5"/>
<path d="M24.042 11.9619H22.6536C22.2705 11.9619 21.96 12.2724 21.96 12.6556V14.0429C21.96 14.4261 22.2705 14.7366 22.6536 14.7366H24.042C24.4252 14.7366 24.7357 14.4261 24.7357 14.0429V12.6556C24.7357 12.2724 24.4252 11.9619 24.042 11.9619Z" fill="#4BF0C5"/>
<path d="M44.7357 22.106H15.2626C14.6815 22.106 14.21 22.5765 14.21 23.1586V44.3908C14.21 47.1939 16.4931 49.4739 19.2983 49.4739H20.5256V55.7959C20.5256 58.1137 22.414 60 24.7361 60C27.0582 60 28.9465 58.1137 28.9465 55.7959V49.4739H31.0518V55.7959C31.0518 58.1137 32.9402 60 35.2622 60C37.5843 60 39.4727 58.1137 39.4727 55.7959V49.4739H40.7C43.5063 49.4739 45.7884 47.1939 45.7884 44.3908V23.1586C45.7884 22.5765 45.3178 22.106 44.7357 22.106ZM43.6831 44.3908C43.6831 46.0329 42.3453 47.3687 40.7 47.3687H38.4201C37.839 47.3687 37.3675 47.8392 37.3675 48.4213V55.7959C37.3675 56.9538 36.4233 57.8948 35.2622 57.8948C34.1012 57.8948 33.157 56.9527 33.157 55.7959V48.4213C33.157 47.8392 32.6854 47.3687 32.1044 47.3687H27.8939C27.3129 47.3687 26.8413 47.8392 26.8413 48.4213V55.7959C26.8413 56.9538 25.8971 57.8948 24.7361 57.8948C23.5751 57.8948 22.6309 56.9527 22.6309 55.7959V48.4213C22.6309 47.8392 22.1593 47.3687 21.5783 47.3687H19.2993C17.6541 47.3687 16.3152 46.0319 16.3152 44.3908V24.2112H43.6831V44.3908Z" fill="#4BF0C5"/>
<path d="M50.5252 22.106C48.4937 22.106 46.8411 23.7607 46.8411 25.7943V40.5225C46.8411 42.5561 48.4937 44.2108 50.5252 44.2108C52.5568 44.2108 54.2094 42.5561 54.2094 40.5225V25.7943C54.2094 23.7607 52.5568 22.106 50.5252 22.106ZM52.1041 40.5225C52.1041 41.3951 51.3957 42.1056 50.5252 42.1056C49.6547 42.1056 48.9463 41.3951 48.9463 40.5225V25.7943C48.9463 24.9217 49.6547 24.2112 50.5252 24.2112C51.3957 24.2112 52.1041 24.9217 52.1041 25.7943V40.5225Z" fill="#4BF0C5"/>
<path d="M9.47321 22.106C7.44167 22.106 5.78906 23.7607 5.78906 25.7943V40.5225C5.78906 42.5561 7.44167 44.2108 9.47321 44.2108C11.5048 44.2108 13.1574 42.5561 13.1574 40.5225V25.7943C13.1574 23.7607 11.5048 22.106 9.47321 22.106ZM11.0521 40.5225C11.0521 41.3951 10.3437 42.1056 9.47321 42.1056C8.6027 42.1056 7.89429 41.3951 7.89429 40.5225V25.7943C7.89429 24.9217 8.6027 24.2112 9.47321 24.2112C10.3437 24.2112 11.0521 24.9217 11.0521 25.7943V40.5225Z" fill="#4BF0C5"/>
</g>
<defs>
<clipPath id="clip0_109_296">
<rect width="60" height="60" fill="white"/>
</clipPath>
</defs>
</svg>
