<svg width="60" height="60" viewBox="0 0 60 60" fill="none" xmlns="http://www.w3.org/2000/svg">
<g clip-path="url(#clip0_109_306)">
<path d="M30.7986 14.3477H29.4941V13.0436C29.4941 4.51634 34.0105 0 42.5378 0H43.8418V1.30451C43.8418 9.83133 39.3255 14.3477 30.7986 14.3477ZM41.1841 2.65774C35.5103 3.04894 32.5431 6.01621 32.1352 11.7066C37.9073 11.3154 40.8091 8.41314 41.1841 2.65774Z" fill="#4BF0C5"/>
<path d="M41.2342 60.0003C39.1329 59.9989 37.0637 59.4897 35.2017 58.5167C32.4566 57.0469 29.1583 57.0469 26.4136 58.5167C24.5512 59.4897 22.4819 59.9989 20.3807 60.0003C11.6093 60.0003 4.72852 47.9674 4.72852 32.609C4.72852 23.2663 11.7559 15.6523 20.3807 15.6523C21.9957 15.6523 23.5997 15.9222 25.1254 16.4515L29.9679 18.1305C30.5225 18.322 31.1253 18.322 31.6799 18.1305L36.5058 16.4515C38.0266 15.9246 39.6244 15.6547 41.2342 15.6523C45.9459 15.6523 50.348 17.9189 53.3483 21.8644L54.4894 23.3805L52.6633 23.9021C47.9745 25.2534 44.8515 29.6776 45.1491 34.5484C45.4462 39.4191 49.0841 43.4306 53.9024 44.201L55.3865 44.4456L54.9298 45.8805C52.2234 54.5869 46.9571 60.0003 41.2342 60.0003ZM30.7996 54.7828C32.7556 54.7981 34.6796 55.2848 36.4078 56.2015C37.8953 56.9867 39.5523 57.3951 41.2342 57.3913C45.5059 57.3913 49.5656 53.2337 52.0113 46.4513C46.3949 44.8755 42.5196 39.7463 42.5387 33.9131C42.5611 28.8412 45.5074 24.2374 50.1035 22.0927C47.707 19.6471 44.5602 18.2609 41.2342 18.2609C39.9134 18.2614 38.6018 18.4816 37.3536 18.9134L32.5115 20.5924C31.4071 20.9716 30.2077 20.9716 29.1038 20.5924L24.245 18.9134C22.9969 18.4816 21.6852 18.2609 20.3644 18.2609C13.1741 18.2609 7.32129 24.7013 7.32129 32.609C7.32129 46.0439 13.2883 57.3913 20.3644 57.3913C22.0463 57.3956 23.7038 56.9872 25.1908 56.2015C26.919 55.2848 28.843 54.7981 30.7996 54.7828Z" fill="#4BF0C5"/>
</g>
<defs>
<clipPath id="clip0_109_306">
<rect width="60" height="60" fill="white"/>
</clipPath>
</defs>
</svg>
