<svg width="58" height="58" viewBox="0 0 58 58" fill="none" xmlns="http://www.w3.org/2000/svg">
<path d="M28.8462 0C12.9005 0 0 12.9437 0 28.8462C0 44.7118 12.8538 57.6923 28.8462 57.6923C44.7864 57.6923 57.6923 44.7525 57.6923 28.8462C57.6923 12.954 44.7995 0 28.8462 0ZM49.2158 45.8551C46.958 44.6947 44.3992 43.7881 41.9125 43.1427C43.0778 39.1668 43.74 34.6808 43.8336 30H55.3595C55.1076 35.8212 52.9542 41.3828 49.2158 45.8551ZM8.47638 45.8551C4.73815 41.3827 2.58473 35.8212 2.33273 30H13.8586C13.9523 34.6808 14.6145 39.1668 15.7797 43.1427C13.2907 43.7895 10.7748 44.6784 8.47638 45.8551ZM8.47638 11.8371C10.7712 13.0127 13.2944 13.9027 15.7797 14.5497C14.6145 18.5255 13.9523 23.0114 13.8586 27.6923H2.33273C2.58473 21.871 4.73815 16.3095 8.47638 11.8371ZM41.1995 12.3542C40.0311 9.09715 38.2923 5.69562 35.8596 3.25512C40.2628 4.46458 44.3188 6.79881 47.5941 10.0659C45.592 11.0322 43.2957 11.8302 41.1995 12.3542ZM30 13.8328V2.42158C32.8177 2.97369 35.4832 5.53719 37.6048 9.78081C38.0901 10.7514 38.5333 11.7846 38.9334 12.8706C35.9924 13.4608 32.9753 13.7698 30 13.8328ZM27.6923 13.8328C24.6917 13.7693 21.6665 13.4552 18.7589 12.8706C19.1589 11.7845 19.6022 10.7513 20.0874 9.78081C22.2092 5.53719 24.8746 2.97358 27.6923 2.42158V13.8328ZM27.6923 16.1409V27.6923H16.1667C16.2602 23.1772 16.9021 18.8673 18.0285 15.0738C21.0173 15.6924 24.2877 16.0717 27.6923 16.1409ZM27.6923 30V41.5514C24.4767 41.6168 21.1651 41.9667 18.0286 42.6185C16.9021 38.825 16.2602 34.5151 16.1667 30H27.6923ZM27.6923 43.8595V55.2707C24.8746 54.7186 22.2092 52.155 20.0874 47.9115C19.6021 46.9409 19.1589 45.9077 18.7589 44.8217C21.5544 44.2574 24.5965 43.9251 27.6923 43.8595ZM30 43.8595C33.0886 43.9248 36.1184 44.2546 38.9334 44.8217C38.5333 45.9077 38.0901 46.9409 37.6048 47.9115C35.4831 52.155 32.8177 54.7186 30 55.2707V43.8595ZM30 41.5514V30H41.5258C41.4321 34.5151 40.7903 38.825 39.6637 42.6185C36.6925 42.0014 33.4002 41.6206 30 41.5514ZM30 27.6923V16.1409C33.443 16.0709 36.7007 15.6862 39.6638 15.0738C40.7903 18.8672 41.4321 23.1772 41.5258 27.6923H30ZM16.4928 12.3542C14.3294 11.8079 12.1012 11.0341 10.0981 10.0659C13.3735 6.79881 17.4295 4.46458 21.8328 3.25512C19.3964 5.69919 17.6583 9.10511 16.4928 12.3542ZM16.4928 45.3381C17.6579 48.5864 19.3962 51.993 21.8328 54.4372C17.4295 53.2277 13.3735 50.8934 10.0981 47.6264C12.1042 46.6562 14.3334 45.886 16.4928 45.3381ZM41.1993 45.3381C43.267 45.8549 45.593 46.658 47.5942 47.6264C44.3188 50.8934 40.2628 53.2277 35.8596 54.4372C38.296 51.9929 40.0345 48.5862 41.1993 45.3381ZM43.8337 27.6923C43.74 23.0114 43.0778 18.5255 41.9127 14.5497C44.4408 13.8931 46.9727 12.9875 49.2159 11.8372C52.9542 16.3095 55.1077 21.8712 55.3596 27.6924H43.8337V27.6923Z" fill="#4BF0C5"/>
</svg>
