<svg width="18" height="18" viewBox="0 0 18 18" fill="none" xmlns="http://www.w3.org/2000/svg">
<path d="M17.5625 7.93922L16.3349 6.71182C16.0435 6.42046 15.8048 5.84468 15.8048 5.43176V3.6959C15.8048 2.87016 15.1302 2.19559 14.3047 2.19515H12.5681C12.1557 2.19515 11.5792 1.95595 11.2878 1.66481L10.0604 0.437404C9.47722 -0.145801 8.52232 -0.145801 7.93911 0.437404L6.71171 1.66569C6.42008 1.95705 5.84299 2.19559 5.43143 2.19559H3.69557C2.87093 2.19559 2.19548 2.87016 2.19548 3.6959V5.43181C2.19548 5.84309 1.95677 6.42067 1.66536 6.71186L0.437734 7.93927C-0.145911 8.52247 -0.145911 9.47737 0.437734 10.0615L1.66536 11.2889C1.95694 11.5803 2.19548 12.1576 2.19548 12.569V14.3049C2.19548 15.1297 2.87093 15.8052 3.69557 15.8052H5.43148C5.84391 15.8052 6.42035 16.0439 6.71175 16.3351L7.93916 17.5629C8.52236 18.1457 9.47726 18.1457 10.0605 17.5629L11.2879 16.3351C11.5795 16.0437 12.1557 15.8052 12.5682 15.8052H14.3047C15.1302 15.8052 15.8048 15.1297 15.8048 14.3049V12.569C15.8048 12.1559 16.0437 11.5801 16.3349 11.2889L17.5626 10.0615C18.1453 9.47737 18.1453 8.52243 17.5625 7.93922ZM7.80908 12.3752L4.49952 9.06516L5.56019 8.0047L7.80934 10.2539L12.4392 5.62508L13.4996 6.68554L7.80908 12.3752Z" fill="#6C33D9"/>
</svg>
