<svg width="60" height="60" viewBox="0 0 60 60" fill="none" xmlns="http://www.w3.org/2000/svg">
<g clip-path="url(#clip0_109_310)">
<path d="M2.48575 24.7533C1.25935 24.9522 0.310642 25.9354 0.155749 27.1683C-0.0501817 29.0355 -0.0522548 30.9196 0.149727 32.7873C0.290503 34.0391 1.24503 35.0455 2.48773 35.2522L5.66969 35.7732C6.28057 38.3751 7.31181 40.8601 8.72262 43.1301L6.8497 45.7461C6.10337 46.758 6.12143 48.1428 6.89373 49.1351C7.4898 49.8643 8.12408 50.5617 8.7937 51.2241C9.40774 51.8391 10.0866 52.4571 10.9017 53.1421C11.886 53.899 13.2519 53.9148 14.2536 53.181L16.8826 51.2951C19.1503 52.7057 21.6328 53.7372 24.2325 54.349L24.7545 57.536C24.953 58.7628 25.9364 59.712 27.1695 59.867C27.7396 59.931 28.3186 59.976 28.9015 60H28.9865C29.5076 59.9996 30.0089 59.7991 30.3865 59.4399C30.7791 59.0648 31.0006 58.545 30.9994 58.002V49.988C30.9935 48.9172 30.1482 48.0394 29.0784 47.9931C19.5072 47.4934 12.0028 39.587 12.0028 30.0027C12.0028 20.4184 19.5072 12.5121 29.0784 12.0124C30.1499 11.9654 30.9957 11.085 30.9994 10.0124V2.00252C31.001 1.45887 30.779 0.938609 30.3854 0.56357C29.9925 0.178066 29.4561 -0.0253972 28.9063 0.00254075C28.3244 0.0255426 27.7474 0.0674989 27.1553 0.127521C25.9229 0.286362 24.9443 1.24139 24.7553 2.46947L24.2344 5.65341C21.6347 6.26567 19.1522 7.2975 16.8844 8.70841L14.2555 6.8264C13.2445 6.08709 11.8654 6.1091 10.8786 6.8804C10.1536 7.47391 9.45967 8.10434 8.79962 8.76942C8.11934 9.4344 7.47894 10.139 6.88168 10.8794C6.11867 11.865 6.09912 13.2363 6.8337 14.2434L8.71867 16.8754C7.30904 19.1452 6.27919 21.6299 5.66969 24.2313L2.48575 24.7533ZM7.47874 25.3112C8.06011 22.4868 9.17545 19.7995 10.7648 17.3934C10.9925 17.0473 10.9833 16.5968 10.7418 16.2603L8.46082 13.0754C8.24995 12.7971 8.24383 12.4143 8.44581 12.1294C8.99391 11.4501 9.58199 10.804 10.2068 10.1944C10.8137 9.5813 11.4512 8.99914 12.1167 8.45036C12.4032 8.23199 12.8003 8.23199 13.0868 8.45036L16.2668 10.7324C16.6036 10.9734 17.0541 10.9817 17.3998 10.7534C19.8038 9.16352 22.4897 8.04778 25.3127 7.46641C25.7186 7.38279 26.0308 7.05741 26.0977 6.64841L26.7267 2.79742C26.7719 2.452 27.0372 2.17657 27.3807 2.11842C27.9097 2.06343 28.4457 2.02444 28.9997 2.00242L28.9777 10.0133C18.3314 10.5571 9.97993 19.3508 9.98585 30.011C9.99168 40.6713 18.3528 49.4558 28.9997 49.9878L28.9857 58.0018C28.4487 57.9798 27.9168 57.9378 27.3918 57.8788C27.0466 57.8283 26.7761 57.5562 26.7278 57.2107L26.0977 53.3578C26.0308 52.9488 25.7187 52.6235 25.3127 52.5398C22.4897 51.9579 19.8038 50.842 17.3998 49.2518C17.0539 49.0237 16.6035 49.0325 16.2668 49.2738L13.0838 51.5578C12.8123 51.7689 12.4352 51.779 12.1528 51.5828C11.4178 50.9638 10.7807 50.3828 10.2068 49.8097C9.59363 49.2039 9.01187 48.5671 8.46378 47.9018C8.24807 47.6137 8.24807 47.2179 8.46378 46.9298L10.7427 43.7478C10.984 43.4112 10.9928 42.9606 10.7648 42.6148C9.17535 40.2092 8.06001 37.522 7.47874 34.6979C7.39523 34.2923 7.07034 33.9802 6.66173 33.9129L2.81173 33.2818C2.45337 33.2226 2.17824 32.932 2.13875 32.5709C1.95148 30.8508 1.95345 29.1154 2.14477 27.3959C2.19453 27.0505 2.46621 26.7792 2.81173 26.73L6.66065 26.0999C7.07083 26.0328 7.39651 25.7188 7.47874 25.3112Z" fill="#4BF0C5"/>
<path d="M56.9994 27.0019C55.7326 27.0071 54.6057 27.8075 54.1834 29.0019H30.9997V26.0019H46.9995C48.6563 26.0019 49.9994 24.6588 49.9994 23.0019V17.818C51.377 17.331 52.2033 15.9224 51.9562 14.4823C51.7091 13.0423 50.4605 11.9896 48.9994 11.9896C47.5383 11.9896 46.2897 13.0423 46.0426 14.4823C45.7955 15.9224 46.6218 17.331 47.9994 17.818V23.0019C47.9994 23.5542 47.5517 24.002 46.9993 24.002H30.9997V21.0019H41.9995C42.5518 21.0019 42.9995 20.5543 42.9995 20.0019C42.9995 19.4496 42.5518 19.0019 41.9995 19.0019H30.9997V17.0019H36.9996C38.6564 17.0019 39.9996 15.6588 39.9996 14.0019V7.81811C41.3772 7.33112 42.2035 5.92248 41.9564 4.48244C41.7093 3.0424 40.4607 1.98975 38.9996 1.98975C37.5385 1.98975 36.2899 3.0424 36.0428 4.48244C35.7957 5.92248 36.622 7.33112 37.9996 7.81811V14.0021C37.9996 14.5543 37.5519 15.0021 36.9995 15.0021H30.7356C30.3916 14.3627 29.7049 13.984 28.9806 14.0342C20.5537 14.5679 13.9922 21.5582 13.9922 30.002C13.9922 38.4458 20.5537 45.4361 28.9806 45.9699H29.0976C29.7808 45.9756 30.4111 45.603 30.7356 45.0019H36.9995C37.5518 45.0019 37.9996 45.4496 37.9996 46.0019V52.1859C36.622 52.6729 35.7957 54.0815 36.0428 55.5216C36.2899 56.9616 37.5385 58.0143 38.9996 58.0143C40.4607 58.0143 41.7093 56.9616 41.9564 55.5216C42.2035 54.0815 41.3772 52.6729 39.9996 52.1859V46.0019C39.9996 44.3451 38.6565 43.0019 36.9996 43.0019H30.9997V41.0019H41.9995C42.5518 41.0019 42.9995 40.5543 42.9995 40.002C42.9995 39.4498 42.5518 39.002 41.9995 39.002H30.9997V36.002H46.9995C47.5518 36.002 47.9996 36.4497 47.9996 37.002V42.1859C46.622 42.6729 45.7957 44.0815 46.0428 45.5216C46.2899 46.9616 47.5385 48.0143 48.9996 48.0143C50.4607 48.0143 51.7093 46.9616 51.9564 45.5216C52.2035 44.0815 51.3772 42.6729 49.9996 42.1859V37.002C49.9996 35.3452 48.6565 34.0021 46.9997 34.0021H30.9997V31.0019H54.1834C54.6944 32.4365 56.2006 33.2591 57.6838 32.9138C59.167 32.5684 60.155 31.1651 59.9799 29.6523C59.8047 28.1397 58.5222 26.9992 56.9994 27.0019ZM48.9995 14.0021C49.5517 14.0021 49.9994 14.4498 49.9994 15.0021C49.9994 15.5544 49.5517 16.0021 48.9995 16.0021C48.4473 16.0021 47.9996 15.5544 47.9996 15.0021C47.9996 14.4498 48.4472 14.0021 48.9995 14.0021ZM38.9996 4.00216C39.5518 4.00216 39.9996 4.44986 39.9996 5.0022C39.9996 5.55455 39.5519 6.00215 38.9996 6.00215C38.4473 6.00215 37.9997 5.55445 37.9997 5.0022C37.9997 4.44996 38.4473 4.00216 38.9996 4.00216ZM38.9996 56.0017C38.4473 56.0017 37.9997 55.554 37.9997 55.0016C37.9997 54.4493 38.4473 54.0016 38.9996 54.0016C39.5518 54.0016 39.9996 54.4493 39.9996 55.0016C39.9996 55.554 39.5518 56.0017 38.9996 56.0017ZM48.9995 46.0018C48.4473 46.0018 47.9996 45.5541 47.9996 45.0017C47.9996 44.4494 48.4473 44.0018 48.9995 44.0018C49.5517 44.0018 49.9994 44.4495 49.9994 45.0017C49.9994 45.554 49.5517 46.0018 48.9995 46.0018ZM15.9998 30.0019C16.0082 22.6613 21.6785 16.5707 28.9997 16.0381V43.9658C21.6785 43.4331 16.0082 37.3424 15.9998 30.0019ZM56.9994 31.0019C56.4472 31.0019 55.9994 30.5542 55.9994 30.0018C55.9994 29.4495 56.4471 29.0019 56.9994 29.0019C57.5518 29.0019 57.9995 29.4496 57.9995 30.0018C57.9995 30.5541 57.5517 31.0019 56.9994 31.0019Z" fill="#4BF0C5"/>
</g>
<defs>
<clipPath id="clip0_109_310">
<rect width="60" height="60" fill="white"/>
</clipPath>
</defs>
</svg>
