<svg width="50" height="50" viewBox="0 0 50 50" fill="none" xmlns="http://www.w3.org/2000/svg">
<path d="M14.6095 17.9688C14.3337 17.9681 14.0646 18.0532 13.8394 18.2125C13.6143 18.3717 13.4442 18.597 13.353 18.8572C13.2617 19.1174 13.2536 19.3996 13.33 19.6646C13.4063 19.9295 13.5633 20.1642 13.779 20.3359L15.1946 21.4688C14.9891 20.3129 14.8758 19.1426 14.8556 17.9688H14.6095Z" fill="#1B1F2E"/>
<path d="M2.34375 44.5312V47.6562H7.03125V36.8796C5.62191 37.6007 4.4387 38.6964 3.61171 40.0464C2.78472 41.3963 2.34599 42.9481 2.34375 44.5312Z" fill="#1B1F2E"/>
<path d="M13.614 7.23906C13.8207 7.67936 13.9343 8.15758 13.9478 8.64381C13.9612 9.13003 13.8742 9.6138 13.6921 10.0648C13.5873 10.3277 13.5392 10.6097 13.5509 10.8924C13.5626 11.1751 13.6339 11.4522 13.7601 11.7055L15.0608 14.3063C15.1005 14.2629 15.145 14.2244 15.1937 14.1914L20.4179 10.7086C21.7233 9.83748 23.2579 9.37336 24.8272 9.375C26.2783 9.3729 27.6859 8.87912 28.8202 7.97422L30.7616 6.42031C30.8464 6.35304 30.9441 6.30396 31.0487 6.27614C31.1533 6.24832 31.2624 6.24234 31.3694 6.25859C31.4763 6.27523 31.5786 6.31389 31.6698 6.37212C31.761 6.43035 31.8391 6.50689 31.8991 6.59688L33.7124 9.31641C34.4416 10.4114 34.9088 11.6595 35.078 12.9641L35.7577 11.0961C36.1161 10.1107 36.2317 9.05345 36.0947 8.0139C35.9577 6.97435 35.572 5.98317 34.9705 5.12434C34.3689 4.26552 33.5692 3.56438 32.639 3.08034C31.7089 2.5963 30.6758 2.34363 29.6272 2.34375H22.9952C18.9043 2.34255 14.8761 3.34959 11.2671 5.27578L11.5015 5.35391C11.9645 5.50563 12.3911 5.75141 12.7546 6.07581C13.1182 6.40022 13.4107 6.79625 13.614 7.23906Z" fill="#1B1F2E"/>
<path d="M21.875 21.0938C22.0822 21.0938 22.2809 21.0114 22.4274 20.8649C22.5739 20.7184 22.6562 20.5197 22.6562 20.3125V17.9688H19.5312V20.3125C19.5312 20.5197 19.6136 20.7184 19.7601 20.8649C19.9066 21.0114 20.1053 21.0938 20.3125 21.0938H21.875Z" fill="#1B1F2E"/>
<path d="M29.6875 21.0938C29.8947 21.0938 30.0934 21.0114 30.2399 20.8649C30.3864 20.7184 30.4688 20.5197 30.4688 20.3125V17.9688H27.3438V20.3125C27.3438 20.5197 27.4261 20.7184 27.5726 20.8649C27.7191 21.0114 27.9178 21.0938 28.125 21.0938H29.6875Z" fill="#1B1F2E"/>
<path d="M33.5938 14.0835C33.5953 12.6953 33.1845 11.3379 32.4133 10.1835L31.0727 8.17261L29.7969 9.19448C28.3852 10.3209 26.6333 10.9354 24.8273 10.9375C23.5657 10.9361 22.332 11.3094 21.2828 12.0101L16.4062 15.2617V16.4062H23.4375C23.6447 16.4062 23.8434 16.4885 23.9899 16.635C24.1364 16.7815 24.2188 16.9802 24.2188 17.1875V17.9687H25.7812V17.1875C25.7812 16.9802 25.8636 16.7815 26.0101 16.635C26.1566 16.4885 26.3553 16.4062 26.5625 16.4062H33.5938V14.0835Z" fill="#1B1F2E"/>
<path d="M16.4177 17.9688C16.479 21.5495 17.4787 25.0515 19.3169 28.125H30.6818C32.5198 25.0514 33.5192 21.5494 33.5802 17.9688H32.031V20.3125C32.031 20.9341 31.7841 21.5302 31.3445 21.9698C30.905 22.4093 30.3089 22.6562 29.6873 22.6562H28.1248C27.5032 22.6562 26.907 22.4093 26.4675 21.9698C26.0279 21.5302 25.781 20.9341 25.781 20.3125V19.5312H24.2185V20.3125C24.2185 20.9341 23.9716 21.5302 23.532 21.9698C23.0925 22.4093 22.4964 22.6562 21.8748 22.6562H20.3123C19.6907 22.6562 19.0945 22.4093 18.655 21.9698C18.2154 21.5302 17.9685 20.9341 17.9685 20.3125V17.9688H16.4177Z" fill="#1B1F2E"/>
<path d="M42.9688 36.8796V47.6562H47.6562V44.5312C47.6539 42.9481 47.2152 41.3963 46.3882 40.0464C45.5612 38.6965 44.378 37.6008 42.9688 36.8796Z" fill="#1B1F2E"/>
<path d="M39.0625 29.6875H10.9375C10.3159 29.6875 9.71976 29.9344 9.28022 30.374C8.84068 30.8135 8.59375 31.4096 8.59375 32.0312V47.6562H41.4062V32.0312C41.4062 31.4096 41.1593 30.8135 40.7198 30.374C40.2802 29.9344 39.6841 29.6875 39.0625 29.6875ZM26.7188 30.7813L27.9688 31.7187L23.2812 37.9687L22.0313 37.0313L26.7188 30.7813ZM20.8656 36.9477L19.7602 38.0531L16.6352 34.9281C16.5625 34.8556 16.5049 34.7694 16.4656 34.6746C16.4263 34.5797 16.406 34.4781 16.406 34.3754C16.406 34.2727 16.4263 34.1711 16.4656 34.0762C16.5049 33.9814 16.5625 33.8952 16.6352 33.8227L19.7602 30.6977L20.8656 31.8031L18.2922 34.375L20.8656 36.9477ZM25 45.3125C24.3819 45.3125 23.7777 45.1292 23.2638 44.7858C22.7499 44.4425 22.3494 43.9544 22.1129 43.3834C21.8764 42.8124 21.8145 42.184 21.935 41.5778C22.0556 40.9717 22.3533 40.4148 22.7903 39.9778C23.2273 39.5408 23.7842 39.2431 24.3903 39.1225C24.9965 39.002 25.6249 39.0639 26.1959 39.3004C26.7669 39.5369 27.255 39.9374 27.5983 40.4513C27.9417 40.9652 28.125 41.5694 28.125 42.1875C28.125 43.0163 27.7958 43.8112 27.2097 44.3972C26.6237 44.9833 25.8288 45.3125 25 45.3125ZM33.3648 34.9273L30.2398 38.0523L29.1344 36.9469L31.707 34.375L29.1344 31.8023L30.2398 30.6969L33.3648 33.8219C33.4375 33.8944 33.4951 33.9806 33.5344 34.0754C33.5737 34.1703 33.594 34.2719 33.594 34.3746C33.594 34.4773 33.5737 34.5789 33.5344 34.6738C33.4951 34.7686 33.4375 34.8548 33.3648 34.9273Z" fill="#1B1F2E"/>
<path d="M25 40.625C24.691 40.625 24.3889 40.7166 24.1319 40.8883C23.875 41.06 23.6747 41.304 23.5564 41.5896C23.4382 41.8751 23.4072 42.1892 23.4675 42.4923C23.5278 42.7954 23.6766 43.0738 23.8951 43.2924C24.1137 43.5109 24.3921 43.6597 24.6952 43.72C24.9983 43.7803 25.3124 43.7493 25.5979 43.6311C25.8835 43.5128 26.1275 43.3125 26.2992 43.0556C26.4709 42.7986 26.5625 42.4965 26.5625 42.1875C26.5625 41.7731 26.3979 41.3757 26.1049 41.0826C25.8118 40.7896 25.4144 40.625 25 40.625Z" fill="#1B1F2E"/>
<path d="M35.1431 17.9688C35.1234 19.1426 35.0097 20.313 34.8032 21.4688L36.2196 20.3359C36.4353 20.1643 36.5921 19.9298 36.6685 19.6649C36.7449 19.4001 36.737 19.1181 36.6459 18.8579C36.5548 18.5978 36.3851 18.3725 36.1602 18.2131C35.9353 18.0538 35.6663 17.9684 35.3907 17.9688H35.1431Z" fill="#1B1F2E"/>
</svg>
