<svg width="50" height="59" viewBox="0 0 50 59" fill="none" xmlns="http://www.w3.org/2000/svg">
<path d="M37.1452 6.85474H12.4517C9.13795 6.85474 6.45166 9.54102 6.45166 12.8547V37.5483C6.45166 40.862 9.13794 43.5483 12.4517 43.5483H37.1452C40.4589 43.5483 43.1452 40.862 43.1452 37.5483V12.8547C43.1452 9.54103 40.4589 6.85474 37.1452 6.85474Z" fill="#4BF0C5"/>
<path d="M35.9032 12.0967H13.2903C12.1857 12.0967 11.2903 12.9921 11.2903 14.0967V35.9031C11.2903 37.0077 12.1857 37.9031 13.2903 37.9031H35.9032C37.0078 37.9031 37.9032 37.0077 37.9032 35.9031V14.0967C37.9032 12.9921 37.0078 12.0967 35.9032 12.0967Z" fill="#4BF0C5" stroke="#4BF0C5" stroke-width="2"/>
<path d="M18.7243 32.1614L22.9163 20.2414H25.2523L29.4443 32.1614H27.4283L26.5163 29.4894H21.6683L20.7403 32.1614H18.7243ZM22.2123 27.8094H25.9403L23.8283 21.5694H24.3563L22.2123 27.8094ZM19.7803 58.1614V46.2414H21.6683V58.1614H19.7803Z" fill="#1B1F2E"/>
<rect x="16.1292" width="1.6129" height="4.83871" fill="#4BF0C5"/>
<rect x="24.1936" width="1.6129" height="4.83871" fill="#4BF0C5"/>
<rect x="32.2581" width="1.6129" height="4.83871" fill="#4BF0C5"/>
<rect x="16.1292" y="45.1614" width="1.6129" height="4.83871" fill="#4BF0C5"/>
<rect x="24.1936" y="45.1614" width="1.6129" height="4.83871" fill="#4BF0C5"/>
<rect x="32.2581" y="45.1614" width="1.6129" height="4.83871" fill="#4BF0C5"/>
<rect y="33.8708" width="1.6129" height="4.83871" transform="rotate(-90 0 33.8708)" fill="#4BF0C5"/>
<rect y="25.8064" width="1.6129" height="4.83871" transform="rotate(-90 0 25.8064)" fill="#4BF0C5"/>
<rect y="17.7419" width="1.6129" height="4.83871" transform="rotate(-90 0 17.7419)" fill="#4BF0C5"/>
<rect x="45.1614" y="33.8708" width="1.6129" height="4.83871" transform="rotate(-90 45.1614 33.8708)" fill="#4BF0C5"/>
<rect x="45.1614" y="25.8064" width="1.6129" height="4.83871" transform="rotate(-90 45.1614 25.8064)" fill="#4BF0C5"/>
<rect x="45.1614" y="17.7419" width="1.6129" height="4.83871" transform="rotate(-90 45.1614 17.7419)" fill="#4BF0C5"/>
</svg>
