<svg width="12" height="12" viewBox="0 0 12 12" fill="none" xmlns="http://www.w3.org/2000/svg">
<path d="M5.18691 0.552576C5.42639 -0.184472 6.46912 -0.184471 6.7086 0.552578L7.56425 3.18602C7.67135 3.51563 7.97852 3.7388 8.3251 3.7388H11.0941C11.869 3.7388 12.1913 4.73049 11.5643 5.18602L9.32415 6.81357C9.04376 7.01728 8.92644 7.37838 9.03354 7.708L9.88919 10.3414C10.1287 11.0785 9.28509 11.6914 8.65812 11.2359L6.41798 9.60831C6.13759 9.40459 5.75792 9.40459 5.47753 9.60831L3.23739 11.2359C2.61042 11.6914 1.76684 11.0785 2.00632 10.3414L2.86197 7.708C2.96907 7.37838 2.85175 7.01728 2.57136 6.81357L0.331219 5.18601C-0.295752 4.73049 0.0264697 3.7388 0.801449 3.7388H3.57041C3.91699 3.7388 4.22415 3.51563 4.33125 3.18602L5.18691 0.552576Z" fill="#FDC93A"/>
</svg>
