<svg width="50" height="50" viewBox="0 0 50 50" fill="none" xmlns="http://www.w3.org/2000/svg">
<path fill-rule="evenodd" clip-rule="evenodd" d="M39.1003 26.7359H10.8996C7.53166 26.7359 4.7981 23.9908 4.7981 20.6228C4.7981 18.7659 5.61701 17.0358 7.0357 15.8824C6.77041 15.1788 6.62047 14.4291 6.62047 13.6678C6.62047 11.1073 8.20063 8.85813 10.5305 7.95848C10.519 7.78547 10.5074 7.61246 10.5074 7.43945C10.5074 3.34487 13.8523 0 17.9469 0C21.4994 0 24.4982 2.46828 25.2249 5.85929C26.7819 5.90542 28.2006 6.68973 29.0772 7.93541C30.0922 7.35871 31.2225 7.04729 32.4106 7.04729C36.113 7.04729 39.1234 10.0577 39.1234 13.7601C39.1234 14.0138 39.1003 14.2561 39.0772 14.5098H39.1003C42.4682 14.5098 45.2018 17.2549 45.2018 20.6228C45.2018 23.9908 42.4682 26.7359 39.1003 26.7359Z" fill="#4BF0C5"/>
<path fill-rule="evenodd" clip-rule="evenodd" d="M17.6471 33.5293H10.3691C9.89625 33.5293 9.51562 33.1487 9.51562 32.6758C9.51562 32.2144 9.89625 31.8338 10.3691 31.8338H16.7936V25.8823C16.7936 25.4209 17.1742 25.0403 17.6471 25.0403C18.12 25.0403 18.5006 25.4209 18.5006 25.8823V32.6758C18.5006 33.1487 18.12 33.5293 17.6471 33.5293Z" fill="#4BF0C5"/>
<path fill-rule="evenodd" clip-rule="evenodd" d="M8.09716 35.8017C6.37859 35.8017 4.97144 34.4061 4.97144 32.676C4.97144 30.9574 6.37859 29.5618 8.09716 29.5618C9.81573 29.5618 11.2229 30.9574 11.2229 32.676C11.2229 34.4061 9.81573 35.8017 8.09716 35.8017Z" fill="#4BF0C5"/>
<path fill-rule="evenodd" clip-rule="evenodd" d="M39.6312 33.5293H32.3533C31.8804 33.5293 31.4998 33.1487 31.4998 32.6758V25.8823C31.4998 25.4209 31.8804 25.0403 32.3533 25.0403C32.8262 25.0403 33.2068 25.4209 33.2068 25.8823V31.8338H39.6312C40.0926 31.8338 40.4732 32.2144 40.4732 32.6758C40.4732 33.1487 40.0926 33.5293 39.6312 33.5293Z" fill="#4BF0C5"/>
<path fill-rule="evenodd" clip-rule="evenodd" d="M41.9033 35.8017C40.1847 35.8017 38.7776 34.4061 38.7776 32.676C38.7776 30.9574 40.1847 29.5618 41.9033 29.5618C43.6219 29.5618 45.0175 30.9574 45.0175 32.676C45.0175 34.4061 43.6219 35.8017 41.9033 35.8017Z" fill="#4BF0C5"/>
<path fill-rule="evenodd" clip-rule="evenodd" d="M21.3263 41.6954H14.0483C13.5754 41.6954 13.1948 41.3148 13.1948 40.8534C13.1948 40.3805 13.5754 39.9999 14.0483 39.9999H20.4728V25.8823C20.4728 25.4209 20.8534 25.0403 21.3263 25.0403C21.7877 25.0403 22.1683 25.4209 22.1683 25.8823V40.8534C22.1683 41.3148 21.7877 41.6954 21.3263 41.6954Z" fill="#4BF0C5"/>
<path fill-rule="evenodd" clip-rule="evenodd" d="M11.7761 43.9677C10.0575 43.9677 8.65039 42.5721 8.65039 40.8535C8.65039 39.1349 10.0575 37.7278 11.7761 37.7278C13.4947 37.7278 14.8903 39.1349 14.8903 40.8535C14.8903 42.5721 13.4947 43.9677 11.7761 43.9677Z" fill="#4BF0C5"/>
<path fill-rule="evenodd" clip-rule="evenodd" d="M35.952 41.6954H28.674C28.2127 41.6954 27.832 41.3148 27.832 40.8534V25.8823C27.832 25.4209 28.2127 25.0403 28.674 25.0403C29.1469 25.0403 29.5275 25.4209 29.5275 25.8823V39.9999H35.952C36.4249 39.9999 36.8055 40.3805 36.8055 40.8534C36.8055 41.3148 36.4249 41.6954 35.952 41.6954Z" fill="#4BF0C5"/>
<path fill-rule="evenodd" clip-rule="evenodd" d="M38.2234 43.9677C36.5048 43.9677 35.0977 42.5721 35.0977 40.8535C35.0977 39.1349 36.5048 37.7278 38.2234 37.7278C39.9419 37.7278 41.3491 39.1349 41.3491 40.8535C41.3491 42.5721 39.9419 43.9677 38.2234 43.9677Z" fill="#4BF0C5"/>
<path fill-rule="evenodd" clip-rule="evenodd" d="M24.9938 45.4555C24.5325 45.4555 24.1519 45.0749 24.1519 44.602V25.8823C24.1519 25.4209 24.5325 25.0403 24.9938 25.0403C25.4667 25.0403 25.8474 25.4209 25.8474 25.8823V44.602C25.8474 45.0749 25.4667 45.4555 24.9938 45.4555Z" fill="#4BF0C5"/>
<path fill-rule="evenodd" clip-rule="evenodd" d="M24.9941 50C23.2755 50 21.8799 48.5928 21.8799 46.8743C21.8799 45.1557 23.2755 43.7485 24.9941 43.7485C26.7242 43.7485 28.1198 45.1557 28.1198 46.8743C28.1198 48.5928 26.7242 50 24.9941 50Z" fill="#4BF0C5"/>
</svg>
