<svg width="60" height="60" viewBox="0 0 60 60" fill="none" xmlns="http://www.w3.org/2000/svg">
<g clip-path="url(#clip0_109_267)">
<path d="M57.656 10.8984H32.8291L41.727 2.0005C42.1846 1.54288 42.1846 0.800856 41.727 0.343124C41.2693 -0.114375 40.5275 -0.114375 40.0696 0.343124L29.9999 10.4129L19.9302 0.343124C19.4725 -0.114375 18.7307 -0.114375 18.2729 0.343124C17.8152 0.800739 17.8152 1.54277 18.2729 2.0005L27.1708 10.8984H2.34374C1.0514 10.8984 0 11.9498 0 13.2421V52.7857C0 54.0781 1.0514 55.1295 2.34374 55.1295H4.67201L6.8606 59.366C7.06181 59.7554 7.46353 60 7.9018 60H13.2457C13.6839 60 14.0856 59.7554 14.2869 59.366L16.4754 55.1295H43.5246L45.7131 59.366C45.9144 59.7554 46.3161 60 46.7543 60H52.0982C52.5365 60 52.9382 59.7554 53.1394 59.366L55.328 55.1295H57.6563C58.9486 55.1295 60 54.0781 60 52.7857V13.2421C59.9998 11.9497 58.9485 10.8984 57.656 10.8984ZM12.532 57.6563H8.61547L7.31013 55.1295H13.8373L12.532 57.6563ZM51.3844 57.6563H47.4679L46.1626 55.1294H52.6898L51.3844 57.6563ZM57.656 52.7857H2.34374V13.2421H57.656L57.6575 52.7856C57.6575 52.7856 57.6571 52.7857 57.656 52.7857Z" fill="#1B1F2E"/>
<path d="M41.8819 15.8096H10.8639C7.50136 15.8096 4.76562 18.5453 4.76562 21.9079V43.6799C4.76562 47.0426 7.50136 49.7783 10.8639 49.7783H41.8819C45.2445 49.7783 47.9802 47.0426 47.9802 43.6799V21.9079C47.9802 18.5452 45.2445 15.8096 41.8819 15.8096ZM45.6365 43.6799C45.6365 45.7503 43.9522 47.4346 41.8819 47.4346H10.8639C8.7937 47.4346 7.10937 45.7503 7.10937 43.6799V21.9079C7.10937 19.8376 8.7937 18.1533 10.8639 18.1533H29.7739L12.0106 35.9166C11.553 36.3743 11.553 37.1163 12.0106 37.574C12.2395 37.8028 12.5393 37.9173 12.8392 37.9173C13.1391 37.9173 13.439 37.8028 13.6679 37.574L33.0887 18.1533H41.8819C43.9522 18.1533 45.6365 19.8376 45.6365 21.9079V43.6799Z" fill="#1B1F2E"/>
<path d="M52.9023 32.2002C50.9638 32.2002 49.3867 33.7773 49.3867 35.7158C49.3867 37.6543 50.9638 39.2314 52.9023 39.2314C54.8408 39.2314 56.4179 37.6543 56.4179 35.7158C56.4179 33.7773 54.8408 32.2002 52.9023 32.2002ZM52.9023 36.8877C52.2562 36.8877 51.7305 36.362 51.7305 35.7158C51.7305 35.0696 52.2562 34.5439 52.9023 34.5439C53.5485 34.5439 54.0742 35.0696 54.0742 35.7158C54.0742 36.362 53.5485 36.8877 52.9023 36.8877Z" fill="#1B1F2E"/>
<path d="M52.9023 42.7471C50.9638 42.7471 49.3867 44.3242 49.3867 46.2627C49.3867 48.2012 50.9638 49.7783 52.9023 49.7783C54.8408 49.7783 56.4179 48.2012 56.4179 46.2627C56.4179 44.3242 54.8408 42.7471 52.9023 42.7471ZM52.9023 47.4346C52.2562 47.4346 51.7305 46.9089 51.7305 46.2627C51.7305 45.6165 52.2562 45.0908 52.9023 45.0908C53.5485 45.0908 54.0742 45.6165 54.0742 46.2627C54.0742 46.9089 53.5485 47.4346 52.9023 47.4346Z" fill="#1B1F2E"/>
<path d="M54.9612 21.9434H50.5586C49.9115 21.9434 49.3867 22.4681 49.3867 23.1152C49.3867 23.7623 49.9114 24.2871 50.5586 24.2871H54.9612C55.6083 24.2871 56.1331 23.7623 56.1331 23.1152C56.1331 22.4681 55.6083 21.9434 54.9612 21.9434Z" fill="#1B1F2E"/>
<path d="M54.9612 17.1777H50.5586C49.9115 17.1777 49.3867 17.7025 49.3867 18.3496C49.3867 18.9967 49.9114 19.5215 50.5586 19.5215H54.9612C55.6083 19.5215 56.1331 18.9967 56.1331 18.3496C56.1331 17.7025 55.6083 17.1777 54.9612 17.1777Z" fill="#1B1F2E"/>
<path d="M54.9612 26.709H50.5586C49.9115 26.709 49.3867 27.2337 49.3867 27.8809C49.3867 28.528 49.9114 29.0527 50.5586 29.0527H54.9612C55.6083 29.0527 56.1331 28.528 56.1331 27.8809C56.1331 27.2337 55.6083 26.709 54.9612 26.709Z" fill="#1B1F2E"/>
<path d="M32.7618 27.1795C32.304 26.7221 31.5622 26.7221 31.1045 27.1795L20.3872 37.8969C19.9295 38.3545 19.9295 39.0965 20.3872 39.5543C20.616 39.783 20.9159 39.8975 21.2158 39.8975C21.5157 39.8975 21.8155 39.783 22.0444 39.5543L32.7618 28.8369C33.2194 28.3793 33.2194 27.6373 32.7618 27.1795Z" fill="#1B1F2E"/>
<path d="M17.9964 41.9449C17.7785 41.7268 17.4762 41.6016 17.168 41.6016C16.8598 41.6016 16.5574 41.7268 16.3395 41.9449C16.1215 42.163 15.9961 42.4652 15.9961 42.7734C15.9961 43.0816 16.1214 43.384 16.3395 43.6018C16.5574 43.8198 16.8598 43.9453 17.168 43.9453C17.4762 43.9453 17.7785 43.8199 17.9964 43.6018C18.2143 43.384 18.3398 43.0816 18.3398 42.7734C18.3398 42.4652 18.2144 42.1629 17.9964 41.9449Z" fill="#1B1F2E"/>
</g>
<defs>
<clipPath id="clip0_109_267">
<rect width="60" height="60" fill="white"/>
</clipPath>
</defs>
</svg>
