<svg width="40" height="60" viewBox="0 0 40 60" fill="none" xmlns="http://www.w3.org/2000/svg">
<path d="M37.5 25H36V15.3C36 12.4 33.6 9.99996 30.7 9.99996H30.5749L29.8999 8.79996C29.2 7.69992 28.9 6.39996 28.9 5.19996C28.9001 2.30004 26.3 0 23.1 0H12.9C9.69996 0 7.10004 2.30004 7.10004 5.19996C7.10004 6.39996 6.70008 7.69992 6.10008 8.79996L5.42508 9.99996H5.30004C2.4 9.99996 0 12.4 0 15.3V44.7C0 47.6 2.4 50 5.30004 50H5.42508L6.10008 51.2C6.80004 52.3001 7.10004 53.6 7.10004 54.8C7.10004 57.7001 9.70008 60 12.9 60H23.1C26.3 60 28.9 57.7 29 54.8C29 53.6 29.4 52.3001 30 51.2L30.675 50H30.7C33.6 50 36 47.6 36 44.7V35H37.5C38.9 35 40 33.9 40 32.5001V27.5C40.0001 26.1 38.9 25 37.5 25ZM7.90008 9.80004C8.70012 8.4 9.10008 6.80004 9.10008 5.20008C9.10008 3.40008 10.8001 2.00004 12.9001 2.00004H23.1001C25.2001 2.00004 26.9002 3.40008 26.9002 5.20008C26.9002 6.80004 27.3001 8.40012 28.1002 9.80004L28.2001 10.0001H7.70004L7.90008 9.80004ZM28.0001 50.2C27.2 51.6 26.8001 53.2 26.8001 54.7999C26.8001 56.5999 25.1 58 23 58H12.8C10.7 58 9 56.5999 9 54.7999C9 53.2 8.60004 51.5999 7.8 50.2L7.70004 49.9999H28.1L28.0001 50.2ZM34.0001 44.7C34.0001 46.5 32.5001 48 30.7001 48H5.30004C3.50004 48 2.00004 46.5 2.00004 44.7V15.3C2.00004 13.5 3.50004 12 5.30004 12H30.7001C32.5001 12 34.0001 13.5 34.0001 15.3V25V34.9999V44.7ZM38 32.5C38 32.8 37.8 33 37.5 33H36V27H37.5C37.8 27 38 27.2 38 27.5V32.5Z" fill="#4BF0C5"/>
<path d="M30.8999 36.9001H28.8998C28.4999 36.9001 28.1999 37.2001 27.9998 37.5001L26.1998 41.2L23.8999 32.7001C23.8 32.3001 23.5 32.1001 23.0999 32.0001C22.6999 32.0001 22.2998 32.2002 22.0999 32.5002L19.3999 37.0002H16.9999C16.6999 37.0002 16.3999 37.1001 16.1999 37.4001L13.3999 41.6001L10.9999 32.7001C10.9 32.3001 10.6 32.1001 10.1999 32.0001C9.79992 31.9002 9.39984 32.1001 9.19992 32.4001L5.49996 38.0001H3.99996C3.39996 38.0001 3 38.4001 3 39.0001C3 39.6001 3.39996 40 3.99996 40H6C6.3 40 6.6 39.8 6.80004 39.6001L9.6 35.4001L12 44.3001C12.1 44.7001 12.4 44.9001 12.8 45.0001C12.9 45.0001 12.9 45.0001 13.0001 45.0001C13.3001 45.0001 13.6001 44.8 13.8001 44.6001L17.5001 39.0001H19.9999C20.2999 39.0001 20.6999 38.8 20.6999 38.4001L22.4999 35.4001L24.8999 44.1001C24.9998 44.5 25.3999 44.8 25.7999 44.8C26.1998 44.9 26.5999 44.7001 26.7998 44.3L29.4998 38.9H30.8999C31.4999 38.9 31.8998 38.5 31.8998 37.9C31.8998 37.3 31.4999 36.9001 30.8999 36.9001Z" fill="#4BF0C5"/>
<path d="M11 17.9999H25C25.5 17.9999 26 17.6 26 17C26 16.4 25.6 16 25 16H11C10.4 16 10 16.4 10 17C10 17.6 10.4 17.9999 11 17.9999Z" fill="#4BF0C5"/>
<path d="M25 20H22C21.4 20 21 20.4 21 21C21 21.6 21.4 21.9999 22 21.9999H25C25.5 21.9999 25.9999 21.6 25.9999 21C25.9999 20.4 25.6 20 25 20Z" fill="#4BF0C5"/>
<path d="M11 21.9999H17.9999C18.5 21.9999 18.9999 21.6 18.9999 21C18.9999 20.4 18.5999 20 17.9999 20H11C10.4 20 10 20.4 10 21C10 21.6 10.4 21.9999 11 21.9999Z" fill="#4BF0C5"/>
<path d="M19 24C18.4 24 18 24.4 18 25C18 25.6 18.4 25.9999 19 25.9999H25C25.5 25.9999 25.9999 25.6 25.9999 25C25.9999 24.4 25.6 24 25 24H19Z" fill="#4BF0C5"/>
<path d="M11 25.9999H14.9999C15.5 25.9999 15.9999 25.6 15.9999 25C15.9999 24.4 15.5999 24 14.9999 24H11C10.4 24 10 24.4 10 25C10 25.5998 10.4 25.9999 11 25.9999Z" fill="#4BF0C5"/>
</svg>
