<svg width="52" height="52" viewBox="0 0 52 52" fill="none" xmlns="http://www.w3.org/2000/svg">
<path d="M29.948 44.3637C29.6861 44.3637 29.435 44.4677 29.2499 44.6529C29.0647 44.838 28.9607 45.0892 28.9607 45.351V49.6963C28.9601 49.7832 28.9251 49.8663 28.8635 49.9275C28.8018 49.9887 28.7185 50.023 28.6316 50.023H23.366C23.2787 50.023 23.195 49.9883 23.1333 49.9266C23.0716 49.8649 23.0369 49.7812 23.0369 49.6939V45.3558C23.037 45.1279 22.9583 44.907 22.8142 44.7306C22.67 44.5541 22.4692 44.4329 22.2459 44.3876C19.8955 43.9098 17.6602 42.9803 15.6639 41.6507C15.4738 41.5255 15.2464 41.4696 15.0199 41.4925C14.7934 41.5154 14.5817 41.6156 14.4205 41.7764L11.3389 44.8508C11.277 44.9126 11.1931 44.9473 11.1056 44.9473C11.0181 44.9473 10.9342 44.9126 10.8722 44.8508L7.14922 41.1278C7.08769 41.0657 7.05316 40.9818 7.05316 40.8944C7.05316 40.807 7.08769 40.7231 7.14922 40.661L10.2284 37.5831C10.3886 37.4214 10.4881 37.2093 10.5099 36.9827C10.5317 36.7561 10.4745 36.529 10.3481 36.3397C9.01851 34.3434 8.08903 32.1081 7.61116 29.7577C7.56728 29.5343 7.44753 29.3329 7.27218 29.1876C7.09684 29.0424 6.87668 28.9622 6.64899 28.9607H2.30369C2.21641 28.9607 2.1327 28.926 2.07098 28.8643C2.00927 28.8026 1.97459 28.7189 1.97459 28.6316V23.366C1.97554 23.2792 2.01059 23.1963 2.07217 23.1352C2.13375 23.0741 2.21692 23.0396 2.30369 23.0393H6.66216C6.88971 23.0394 7.11032 22.9609 7.28655 22.8169C7.46279 22.673 7.58382 22.4725 7.62911 22.2495C8.10449 19.9005 9.02936 17.6655 10.3528 15.6675C10.4795 15.4783 10.5368 15.2511 10.515 15.0244C10.4932 14.7978 10.3936 14.5857 10.2332 14.4241L7.14922 11.3413C7.08769 11.2793 7.05316 11.1954 7.05316 11.108C7.05316 11.0206 7.08769 10.9367 7.14922 10.8746L10.8722 7.15162C10.9342 7.08979 11.0181 7.05507 11.1056 7.05507C11.1931 7.05507 11.277 7.08979 11.3389 7.15162L14.4169 10.2308C14.5781 10.3915 14.7898 10.4918 15.0163 10.5147C15.2428 10.5376 15.4702 10.4817 15.6603 10.3564C17.6568 9.02737 19.892 8.09793 22.2423 7.61953C22.4656 7.57424 22.6664 7.45308 22.8106 7.27662C22.9548 7.10016 23.0335 6.87926 23.0333 6.65139V2.30608C23.0335 2.26261 23.0422 2.21959 23.059 2.1795C23.0759 2.13941 23.1004 2.10303 23.1313 2.07245C23.1622 2.04188 23.1989 2.01771 23.2392 2.00132C23.2794 1.98494 23.3225 1.97667 23.366 1.97699H28.6316C28.7188 1.9773 28.8023 2.01208 28.864 2.07372C28.9256 2.13537 28.9604 2.2189 28.9607 2.30608V6.65139C28.9607 6.91323 29.0647 7.16436 29.2499 7.34951C29.435 7.53466 29.6861 7.63868 29.948 7.63868C30.2098 7.63868 30.461 7.53466 30.6461 7.34951C30.8313 7.16436 30.9353 6.91323 30.9353 6.65139V2.30608C30.935 1.69498 30.6922 1.10897 30.2603 0.676632C29.8285 0.244294 29.2427 0.0009508 28.6316 0H23.366C22.7553 0.0009495 22.1699 0.243964 21.7381 0.675784C21.3063 1.1076 21.0633 1.69301 21.0623 2.30369V5.86394C19.0136 6.36447 17.0546 7.17868 15.2546 8.27773L12.7343 5.75624C12.2955 5.33735 11.7122 5.10362 11.1056 5.10362C10.499 5.10362 9.91564 5.33735 9.47685 5.75624L5.75384 9.47924C5.32224 9.91141 5.07982 10.4972 5.07982 11.108C5.07982 11.7188 5.32224 12.3046 5.75384 12.7367L8.26696 15.257C7.17593 17.0581 6.36791 19.016 5.87112 21.0623H2.30369C1.69301 21.0633 1.1076 21.3063 0.675784 21.7381C0.243964 22.1699 0.0009495 22.7553 0 23.366V28.6316C0.000316221 29.2427 0.243051 29.8287 0.67494 30.261C1.10683 30.6934 1.69259 30.9367 2.30369 30.9377H5.85915C6.35968 32.9864 7.17389 34.9454 8.27294 36.7454L5.75983 39.2657C5.32823 39.6978 5.0858 40.2836 5.0858 40.8944C5.0858 41.5052 5.32823 42.091 5.75983 42.5232L9.48283 46.2462C9.9212 46.6659 10.5047 46.9001 11.1116 46.9001C11.7185 46.9001 12.3019 46.6659 12.7403 46.2462L15.2606 43.733C17.0608 44.8313 19.0198 45.6451 21.0683 46.1456V49.7011C21.0705 50.3099 21.3133 50.8932 21.7437 51.3238C22.174 51.7544 22.7572 51.9975 23.366 52H28.6316C29.2423 51.9991 29.8277 51.756 30.2595 51.3242C30.6913 50.8924 30.9343 50.307 30.9353 49.6963V45.3558C30.9359 45.2257 30.9108 45.0968 30.8615 44.9765C30.8122 44.8562 30.7396 44.7468 30.6478 44.6546C30.5561 44.5624 30.447 44.4892 30.3269 44.4393C30.2068 44.3894 30.078 44.3637 29.948 44.3637Z" fill="black"/>
<path d="M34.8846 18.1027C34.8839 16.7935 34.3637 15.538 33.4381 14.6119C32.5126 13.6859 31.2573 13.1651 29.9481 13.1638H18.1005C17.0626 13.161 16.0503 13.4863 15.2084 14.0933C14.3665 14.7003 13.738 15.5579 13.4128 16.5436C13.0875 17.5293 13.0822 18.5925 13.3976 19.5814C13.7129 20.5702 14.3328 21.4341 15.1685 22.0495C14.5473 22.5037 14.042 23.0981 13.6937 23.7843C13.3454 24.4704 13.1638 25.2291 13.1638 25.9987C13.1638 26.7682 13.3454 27.5269 13.6937 28.2131C14.042 28.8993 14.5473 29.4937 15.1685 29.9479C14.3317 30.563 13.7109 31.427 13.395 32.4163C13.079 33.4056 13.084 34.4695 13.4094 35.4558C13.7347 36.4421 14.3637 37.3002 15.2063 37.9073C16.0489 38.5144 17.062 38.8395 18.1005 38.8359H29.9481C30.986 38.8388 31.9983 38.5135 32.8402 37.9065C33.6821 37.2994 34.3106 36.4418 34.6358 35.4562C34.961 34.4705 34.9664 33.4073 34.651 32.4184C34.3357 31.4296 33.7158 30.5657 32.88 29.9503C33.5013 29.4961 34.0066 28.9017 34.3549 28.2155C34.7032 27.5293 34.8848 26.7706 34.8848 26.0011C34.8848 25.2315 34.7032 24.4728 34.3549 23.7866C34.0066 23.1004 33.5013 22.5061 32.88 22.0519C33.4996 21.5961 34.0037 21.0015 34.3518 20.3156C34.6999 19.6298 34.8824 18.8719 34.8846 18.1027ZM32.91 33.8995C32.9087 34.6844 32.5962 35.4368 32.0409 35.9916C31.4856 36.5464 30.733 36.8583 29.9481 36.8589H18.1005C17.315 36.8589 16.5616 36.5469 16.0061 35.9914C15.4507 35.436 15.1386 34.6826 15.1386 33.8971C15.1386 33.1115 15.4507 32.3582 16.0061 31.8027C16.5616 31.2472 17.315 30.9352 18.1005 30.9352H29.9481C30.7338 30.9358 31.4872 31.2484 32.0426 31.8042C32.598 32.3601 32.91 33.1137 32.91 33.8995ZM32.91 26.0011C32.9087 26.786 32.5962 27.5384 32.0409 28.0932C31.4856 28.648 30.733 28.9599 29.9481 28.9606H18.1005C17.315 28.9606 16.5616 28.6485 16.0061 28.0931C15.4507 27.5376 15.1386 26.7842 15.1386 25.9987C15.1386 25.2131 15.4507 24.4598 16.0061 23.9043C16.5616 23.3489 17.315 23.0368 18.1005 23.0368H29.9481C30.7338 23.0374 31.4872 23.35 32.0426 23.9059C32.598 24.4617 32.91 25.2153 32.91 26.0011ZM29.9481 21.0622H18.1005C17.315 21.0622 16.5616 20.7502 16.0061 20.1947C15.4507 19.6392 15.1386 18.8859 15.1386 18.1003C15.1386 17.3148 15.4507 16.5614 16.0061 16.0059C16.5616 15.4505 17.315 15.1384 18.1005 15.1384H29.9481C30.7336 15.1384 31.487 15.4505 32.0424 16.0059C32.5979 16.5614 32.91 17.3148 32.91 18.1003C32.91 18.8859 32.5979 19.6392 32.0424 20.1947C31.487 20.7502 30.7336 21.0622 29.9481 21.0622Z" fill="black"/>
<path d="M28.6318 17.113H23.3662C23.1044 17.113 22.8532 17.2171 22.6681 17.4022C22.4829 17.5874 22.3789 17.8385 22.3789 18.1003C22.3789 18.3622 22.4829 18.6133 22.6681 18.7985C22.8532 18.9836 23.1044 19.0876 23.3662 19.0876H28.6318C28.8936 19.0876 29.1448 18.9836 29.3299 18.7985C29.5151 18.6133 29.6191 18.3622 29.6191 18.1003C29.6191 17.8385 29.5151 17.5874 29.3299 17.4022C29.1448 17.2171 28.8936 17.113 28.6318 17.113Z" fill="black"/>
<path d="M19.417 19.4192C20.144 19.4192 20.7334 18.8298 20.7334 18.1028C20.7334 17.3757 20.144 16.7864 19.417 16.7864C18.69 16.7864 18.1006 17.3757 18.1006 18.1028C18.1006 18.8298 18.69 19.4192 19.417 19.4192Z" fill="black"/>
<path d="M23.3662 26.9885H28.6318C28.8936 26.9885 29.1448 26.8845 29.3299 26.6993C29.5151 26.5142 29.6191 26.2631 29.6191 26.0012C29.6191 25.7394 29.5151 25.4882 29.3299 25.3031C29.1448 25.1179 28.8936 25.0139 28.6318 25.0139H23.3662C23.1044 25.0139 22.8532 25.1179 22.6681 25.3031C22.4829 25.4882 22.3789 25.7394 22.3789 26.0012C22.3789 26.2631 22.4829 26.5142 22.6681 26.6993C22.8532 26.8845 23.1044 26.9885 23.3662 26.9885Z" fill="black"/>
<path d="M19.417 27.3176C20.144 27.3176 20.7334 26.7282 20.7334 26.0012C20.7334 25.2742 20.144 24.6848 19.417 24.6848C18.69 24.6848 18.1006 25.2742 18.1006 26.0012C18.1006 26.7282 18.69 27.3176 19.417 27.3176Z" fill="black"/>
<path d="M23.3662 34.8869H28.6318C28.8936 34.8869 29.1448 34.7829 29.3299 34.5978C29.5151 34.4126 29.6191 34.1615 29.6191 33.8996C29.6191 33.6378 29.5151 33.3867 29.3299 33.2015C29.1448 33.0164 28.8936 32.9124 28.6318 32.9124H23.3662C23.1044 32.9124 22.8532 33.0164 22.6681 33.2015C22.4829 33.3867 22.3789 33.6378 22.3789 33.8996C22.3789 34.1615 22.4829 34.4126 22.6681 34.5978C22.8532 34.7829 23.1044 34.8869 23.3662 34.8869Z" fill="black"/>
<path d="M19.417 35.216C20.144 35.216 20.7334 34.6267 20.7334 33.8996C20.7334 33.1726 20.144 32.5833 19.417 32.5833C18.69 32.5833 18.1006 33.1726 18.1006 33.8996C18.1006 34.6267 18.69 35.216 19.417 35.216Z" fill="black"/>
<path d="M33.897 11.1918C34.0505 11.1921 34.2019 11.1565 34.3392 11.088C34.4765 11.0194 34.596 10.9197 34.688 10.7969L38.3404 5.92622H44.9068C45.1454 6.76667 45.6798 7.49251 46.4116 7.96981C47.1433 8.44711 48.023 8.64368 48.8883 8.52325C49.7537 8.40282 50.5462 7.97352 51.1199 7.31454C51.6935 6.65557 52.0094 5.81138 52.0094 4.93772C52.0094 4.06406 51.6935 3.21988 51.1199 2.5609C50.5462 1.90193 49.7537 1.47262 48.8883 1.35219C48.023 1.23176 47.1433 1.42833 46.4116 1.90563C45.6798 2.38294 45.1454 3.10877 44.9068 3.94923H37.8461C37.6929 3.94951 37.5419 3.98531 37.4048 4.05384C37.2678 4.12236 37.1485 4.22174 37.0563 4.34415L33.1071 9.60973C32.9972 9.75633 32.9302 9.93064 32.9137 10.1131C32.8972 10.2956 32.9318 10.4791 33.0136 10.6431C33.0955 10.8071 33.2214 10.945 33.3771 11.0415C33.5329 11.138 33.7125 11.1892 33.8958 11.1894L33.897 11.1918ZM48.3773 3.29342C48.7028 3.29342 49.0209 3.38993 49.2915 3.57074C49.5621 3.75155 49.773 4.00854 49.8975 4.30922C50.0221 4.60989 50.0547 4.94074 49.9912 5.25994C49.9277 5.57913 49.771 5.87233 49.5408 6.10246C49.3107 6.33259 49.0175 6.4893 48.6983 6.5528C48.3791 6.61629 48.0483 6.5837 47.7476 6.45916C47.4469 6.33461 47.1899 6.12371 47.0091 5.85311C46.8283 5.58251 46.7318 5.26437 46.7318 4.93892C46.7324 4.5027 46.906 4.08453 47.2145 3.77608C47.5229 3.46763 47.9411 3.29406 48.3773 3.29342Z" fill="black"/>
<path d="M48.3774 30.2771C47.5912 30.2786 46.827 30.5365 46.2007 31.0116C45.5744 31.4868 45.1201 32.1532 44.9069 32.9099H40.7183L38.2938 31.6976C38.1778 31.6396 38.0515 31.605 37.9222 31.5959C37.7928 31.5867 37.6629 31.603 37.5399 31.644C37.4169 31.6851 37.3032 31.7499 37.2052 31.8348C37.1072 31.9198 37.027 32.0232 36.969 32.1392C36.911 32.2552 36.8764 32.3815 36.8672 32.5108C36.858 32.6402 36.8744 32.77 36.9154 32.8931C36.9564 33.0161 37.0213 33.1298 37.1062 33.2278C37.1912 33.3257 37.2946 33.406 37.4106 33.464L40.0434 34.7804C40.1805 34.8488 40.3317 34.8845 40.485 34.8845H44.9128C45.0978 35.5306 45.4594 36.1123 45.9569 36.5643C46.4544 37.0162 47.068 37.3204 47.7289 37.4426C48.3898 37.5649 49.0717 37.5004 49.6979 37.2564C50.3241 37.0124 50.8699 36.5985 51.2738 36.0613C51.6777 35.5242 51.9238 34.885 51.9844 34.2156C52.045 33.5463 51.9176 32.8733 51.6167 32.2723C51.3158 31.6714 50.8532 31.1663 50.2809 30.8138C49.7087 30.4613 49.0494 30.2755 48.3774 30.2771ZM48.3774 35.5427C48.0519 35.5427 47.7338 35.4462 47.4632 35.2654C47.1926 35.0846 46.9817 34.8276 46.8571 34.5269C46.7326 34.2262 46.7 33.8954 46.7635 33.5762C46.827 33.257 46.9837 32.9638 47.2138 32.7337C47.4439 32.5035 47.7371 32.3468 48.0563 32.2833C48.3755 32.2198 48.7064 32.2524 49.0071 32.377C49.3077 32.5015 49.5647 32.7124 49.7455 32.983C49.9263 33.2536 50.0228 33.5717 50.0228 33.8972C50.0225 34.3335 49.8491 34.7519 49.5405 35.0604C49.232 35.3689 48.8137 35.5424 48.3774 35.5427Z" fill="black"/>
<path d="M48.3777 14.4805C47.5916 14.482 46.8274 14.7399 46.2011 15.215C45.5747 15.6901 45.1205 16.3566 44.9072 17.1133H40.4793C40.3497 17.1132 40.2213 17.1387 40.1016 17.1884C39.9819 17.2381 39.8731 17.311 39.7817 17.4029L38.4653 18.7193C38.2802 18.9043 38.1763 19.1553 38.1763 19.417C38.1763 19.6786 38.2802 19.9296 38.4653 20.1146C38.6503 20.2997 38.9013 20.4036 39.163 20.4036C39.4246 20.4036 39.6756 20.2997 39.8606 20.1146L40.8886 19.0879H44.9072C45.0922 19.7337 45.4535 20.3153 45.9507 20.7671C46.4479 21.219 47.0612 21.5232 47.7218 21.6457C48.3824 21.7682 49.064 21.7041 49.6902 21.4606C50.3163 21.217 50.8622 20.8037 51.2664 20.2671C51.6706 19.7305 51.9172 19.0918 51.9784 18.4227C52.0397 17.7537 51.9132 17.0808 51.6131 16.4797C51.313 15.8786 50.8513 15.3731 50.2798 15.0199C49.7082 14.6668 49.0496 14.4799 48.3777 14.4805ZM48.3777 19.7461C48.0523 19.7461 47.7341 19.6495 47.4635 19.4687C47.1929 19.2879 46.982 19.0309 46.8575 18.7303C46.7329 18.4296 46.7003 18.0987 46.7638 17.7795C46.8273 17.4603 46.9841 17.1671 47.2142 16.937C47.4443 16.7069 47.7375 16.5502 48.0567 16.4867C48.3759 16.4232 48.7067 16.4558 49.0074 16.5803C49.3081 16.7049 49.5651 16.9158 49.7459 17.1864C49.9267 17.457 50.0232 17.7751 50.0232 18.1006C50.0229 18.5369 49.8494 18.9552 49.5409 19.2637C49.2324 19.5723 48.814 19.7457 48.3777 19.7461Z" fill="black"/>
<path d="M48.3773 43.4411C47.5912 43.4426 46.827 43.7005 46.2006 44.1757C45.5743 44.6508 45.1201 45.3173 44.9068 46.0739H38.3392L34.6868 41.2033C34.609 41.0995 34.5115 41.0122 34.4 40.9461C34.2884 40.88 34.1649 40.8366 34.0366 40.8183C33.9082 40.7999 33.7775 40.8071 33.6519 40.8392C33.5263 40.8714 33.4083 40.928 33.3046 41.0058C33.2009 41.0836 33.1135 41.1811 33.0474 41.2926C32.9814 41.4042 32.9379 41.5277 32.9196 41.656C32.9013 41.7844 32.9084 41.9151 32.9406 42.0407C32.9727 42.1663 33.0293 42.2843 33.1071 42.388L37.0563 47.6536C37.1483 47.7762 37.2675 47.8757 37.4046 47.9443C37.5417 48.0128 37.6929 48.0485 37.8461 48.0485H44.9068C45.0917 48.6944 45.4531 49.2759 45.9503 49.7278C46.4475 50.1796 47.0608 50.4839 47.7214 50.6064C48.382 50.7289 49.0636 50.6648 49.6898 50.4212C50.3159 50.1777 50.8618 49.7644 51.266 49.2278C51.6702 48.6911 51.9168 48.0524 51.978 47.3834C52.0393 46.7144 51.9127 46.0415 51.6127 45.4404C51.3126 44.8393 50.8509 44.3338 50.2794 43.9806C49.7078 43.6274 49.0492 43.4406 48.3773 43.4411ZM48.3773 48.7067C48.0519 48.7067 47.7337 48.6102 47.4631 48.4294C47.1925 48.2486 46.9816 47.9916 46.8571 47.6909C46.7325 47.3903 46.6999 47.0594 46.7634 46.7402C46.8269 46.421 46.9836 46.1278 47.2138 45.8977C47.4439 45.6676 47.7371 45.5108 48.0563 45.4473C48.3755 45.3839 48.7063 45.4164 49.007 45.541C49.3077 45.6655 49.5647 45.8764 49.7455 46.147C49.9263 46.4176 50.0228 46.7358 50.0228 47.0612C50.0225 47.4975 49.849 47.9159 49.5405 48.2244C49.232 48.5329 48.8136 48.7064 48.3773 48.7067Z" fill="black"/>
</svg>
