<svg width="54" height="46" viewBox="0 0 54 46" fill="none" xmlns="http://www.w3.org/2000/svg">
<path d="M49.8068 0H3.68159C2.70465 0.00150763 1.76824 0.390654 1.07797 1.08199C0.387698 1.77333 -1.16329e-06 2.71034 0 3.68728V42.3127C-1.16329e-06 43.2897 0.387698 44.2267 1.07797 44.918C1.76824 45.6093 2.70465 45.9985 3.68159 46H49.8068C50.7837 45.9985 51.7201 45.6093 52.4104 44.918C53.1007 44.2267 53.4884 43.2897 53.4884 42.3127V3.68728C53.4884 2.71034 53.1007 1.77333 52.4104 1.08199C51.7201 0.390654 50.7837 0.00150763 49.8068 0ZM51.8325 42.3127C51.8325 42.8505 51.6193 43.3663 51.2395 43.7471C50.8598 44.1279 50.3446 44.3426 49.8068 44.3441H3.68159C3.14381 44.3426 2.62857 44.1279 2.24884 43.7471C1.8691 43.3663 1.65586 42.8505 1.65586 42.3127V7.89238H51.8325V42.3127ZM51.8325 6.23652H1.65586V3.68728C1.65586 3.1495 1.8691 2.63366 2.24884 2.25286C2.62857 1.87206 3.14381 1.65737 3.68159 1.65586H49.8068C50.3446 1.65737 50.8598 1.87206 51.2395 2.25286C51.6193 2.63366 51.8325 3.1495 51.8325 3.68728V6.23652Z" fill="black"/>
<path d="M18.2371 21.1791L28.0073 24.2689C28.088 24.2959 28.1726 24.3094 28.2577 24.3087C28.4326 24.3092 28.6033 24.2545 28.7453 24.1523C28.8873 24.0501 28.9935 23.9057 29.0486 23.7397C29.387 22.6585 29.5597 21.5324 29.5607 20.3995C29.5532 17.4666 28.3836 14.6562 26.3081 12.5839C24.2326 10.5116 21.4204 9.34634 18.4875 9.34334C18.3791 9.34031 18.2712 9.35866 18.17 9.39735C18.0687 9.43604 17.9761 9.4943 17.8973 9.56881C17.8186 9.64332 17.7553 9.73262 17.7111 9.8316C17.6669 9.93058 17.6426 10.0373 17.6396 10.1457V20.3881C17.6401 20.5669 17.6986 20.7407 17.8064 20.8833C17.9141 21.026 18.0653 21.1298 18.2371 21.1791ZM19.3126 11.0106C20.6474 11.1287 21.9417 11.5302 23.1091 12.1882C24.2765 12.8462 25.2901 13.7456 26.0823 14.8265C26.8744 15.9073 27.427 17.1447 27.703 18.456C27.979 19.7673 27.9722 21.1225 27.6829 22.4309L19.3126 19.785V11.0106Z" fill="black"/>
<path d="M15.2666 33.7433C17.6213 33.7509 19.9165 33.0042 21.816 31.6126C23.7155 30.221 25.1194 28.2577 25.822 26.0103C25.8556 25.9072 25.8683 25.7985 25.8595 25.6904C25.8507 25.5823 25.8206 25.4771 25.7708 25.3808C25.7211 25.2844 25.6527 25.1989 25.5697 25.1292C25.4867 25.0595 25.3906 25.007 25.2871 24.9747L16.0917 22.0669V12.4276C16.0872 12.2118 15.9983 12.0063 15.8441 11.8552C15.6898 11.7042 15.4825 11.6196 15.2666 11.6196C12.3298 11.6196 9.51327 12.7863 7.43663 14.8629C5.36 16.9395 4.19336 19.7561 4.19336 22.6929C4.19336 25.6297 5.36 28.4462 7.43663 30.5228C9.51327 32.5995 12.3298 33.7661 15.2666 33.7661V33.7433ZM14.4358 13.2869V22.6701C14.4353 22.8451 14.49 23.0157 14.5922 23.1578C14.6944 23.2998 14.8388 23.4059 15.0048 23.461L23.9499 26.3062C23.3052 27.8452 22.2632 29.1854 20.9305 30.1894C19.5978 31.1935 18.0222 31.8254 16.365 32.0205C14.7078 32.2157 13.0286 31.967 11.4991 31.2999C9.96959 30.6329 8.6448 29.5714 7.66029 28.2242C6.67577 26.8769 6.06689 25.2923 5.89596 23.6325C5.72503 21.9726 5.99818 20.2972 6.68747 18.7776C7.37676 17.258 8.45742 15.9488 9.81887 14.984C11.1803 14.0193 12.7737 13.4336 14.4358 13.2869Z" fill="black"/>
<path d="M28.0986 42.381H33.9596V31.6094H28.0986V42.381ZM29.7545 33.2766H32.3037V40.7252H29.7545V33.2766Z" fill="black"/>
<path d="M35.7695 42.381H41.6248V28.7812H35.7695V42.381ZM37.4254 30.4314H39.9746V40.7251H37.4254V30.4314Z" fill="black"/>
<path d="M43.4336 42.381H49.2946V24.6445H43.4336V42.381ZM45.0895 26.3004H47.6387V40.7252H45.0895V26.3004Z" fill="black"/>
<path d="M35.0576 9.3208H48.4695V10.9767H35.0576V9.3208Z" fill="black"/>
<path d="M35.0576 13.981H48.4695V15.6368H35.0576V13.981Z" fill="black"/>
<path d="M5.01855 36.0649H18.4305V37.7208H5.01855V36.0649Z" fill="black"/>
<path d="M5.01855 40.7251H18.4305V42.381H5.01855V40.7251Z" fill="black"/>
<path d="M5.01855 2.71997H9.02449V4.37583H5.01855V2.71997Z" fill="black"/>
<path d="M35.0576 19.0283H48.4695V20.6842H35.0576V19.0283Z" fill="black"/>
</svg>
