<svg width="52" height="52" viewBox="0 0 52 52" fill="none" xmlns="http://www.w3.org/2000/svg">
<path d="M43.9643 40.1221C45.7453 37.588 46.8 34.5079 46.8 31.1825C46.8 25.7407 43.9946 20.9471 39.7592 18.1547C39.8303 17.0662 39.8667 15.9291 39.8667 14.6889V8.63178C39.8667 7.52158 39.0095 6.62718 37.9141 6.59425C27.8434 6.32385 22.9701 2.30512 21.3382 0.584783C20.5885 -0.193483 19.2825 -0.197817 18.5241 0.589117C16.8965 2.30425 12.0233 6.32298 1.95087 6.59425C0.857133 6.62632 0 7.52072 0 8.63178V14.6889C0 40.136 15.9302 45.7971 19.1239 46.6733C19.3882 46.7452 19.6603 46.7816 19.9325 46.7816C20.2055 46.7816 20.4785 46.7452 20.7454 46.6724C21.58 46.4419 22.8783 46.0025 24.4391 45.2181C26.4879 46.2096 28.7759 46.7816 31.2 46.7816C34.5254 46.7816 37.6055 45.7269 40.1397 43.9459L47.5635 51.3706C47.9717 51.7788 48.5073 51.9825 49.0429 51.9825C49.5785 51.9825 50.1141 51.7788 50.5223 51.3706L51.389 50.5039C52.2045 49.6884 52.2045 48.3607 51.389 47.5451L43.9643 40.1221ZM20.2852 45.0015C20.0547 45.0639 19.8103 45.0647 19.5815 45.0015C16.601 44.1833 1.73247 38.8785 1.73247 14.6881V8.63092C1.73247 8.46538 1.85033 8.33105 1.9994 8.32672C12.7166 8.03812 18.005 3.65278 19.7773 1.78598C19.8909 1.66725 19.9793 1.67158 20.0841 1.78165C21.8608 3.65278 27.1483 8.03812 37.8647 8.32672C38.0155 8.33105 38.1333 8.46452 38.1333 8.63092V14.6881C38.1333 15.5764 38.1082 16.398 38.0709 17.1971C37.5189 16.9249 36.9495 16.6849 36.3636 16.4777C36.3853 15.9205 36.4 15.3389 36.4 14.6881V11.5854C36.4 10.7066 35.7101 9.95172 34.8322 9.86592C27.9353 9.15958 23.4936 6.76412 20.9941 4.88778C20.3675 4.40072 19.4957 4.40245 18.8829 4.87825C16.3722 6.76412 11.9305 9.15872 5.0362 9.86592C4.1548 9.95258 3.4658 10.7074 3.4658 11.5854V14.6881C3.4658 36.2342 15.6641 41.9066 19.3856 43.126C19.5676 43.1901 19.7557 43.2213 19.9403 43.2213C20.1162 43.2213 20.2887 43.1927 20.4499 43.1355C20.6137 43.0844 20.7965 43.0203 20.9907 42.9483C21.4959 43.3869 22.0229 43.8003 22.5819 44.1721C21.5653 44.6123 20.7515 44.8706 20.2843 44.9997L20.2852 45.0015ZM34.6667 14.6889C34.6667 15.1474 34.6606 15.5729 34.6493 15.9794C33.5383 15.7272 32.3865 15.5824 31.2 15.5824C22.5983 15.5824 15.6 22.5808 15.6 31.1825C15.6 35.0253 17.0031 38.5413 19.3154 41.2635C15.2975 39.7382 5.2 33.9731 5.2 14.6898L5.2104 11.5923C12.5034 10.8453 17.238 8.28338 19.942 6.26578C22.6295 8.28252 27.3633 10.8444 34.6667 11.5871V14.6889ZM17.3333 31.1816C17.3333 23.5359 23.5543 17.3149 31.2 17.3149C38.8457 17.3149 45.0667 23.5359 45.0667 31.1816C45.0667 38.8273 38.8457 45.0483 31.2 45.0483C23.5543 45.0483 17.3333 38.8273 17.3333 31.1816ZM42.8801 41.488L43.8559 42.4639L42.4823 43.8375L41.5064 42.8617C41.9926 42.4327 42.4511 41.9742 42.8801 41.488ZM50.1635 49.2785L49.2969 50.1451C49.1599 50.2821 48.9259 50.2821 48.789 50.1451L43.7069 45.063L45.0814 43.6893L50.1635 48.7715C50.3005 48.9092 50.3005 49.1407 50.1635 49.2785Z" fill="white"/>
<path d="M35.7067 25.4626L28.5056 35.0626L26.6119 33.169C26.2731 32.8301 25.7253 32.8301 25.3865 33.169C25.0476 33.5078 25.0476 34.0556 25.3865 34.3944L27.9865 36.9944C28.1494 37.1574 28.3695 37.2484 28.5992 37.2484C28.6191 37.2484 28.6399 37.2484 28.6607 37.2458C28.9112 37.2276 29.1417 37.1028 29.2925 36.9017L37.0925 26.5017C37.3803 26.1195 37.3023 25.5761 36.9192 25.2892C36.537 25.0024 35.9945 25.0804 35.7067 25.4626Z" fill="white"/>
</svg>
