<svg width="48" height="48" viewBox="0 0 48 48" fill="none" xmlns="http://www.w3.org/2000/svg">
<path d="M36.5625 23.4375L25.3125 27.1875L36.5625 30.9375L47.8125 27.1875L36.5625 23.4375Z" fill="#1F3130"/>
<path d="M0 27.1875L11.25 30.9375L22.5 27.1875L11.25 23.4375L0 27.1875Z" fill="#1F3130"/>
<path d="M24.3509 0.0721407C24.0623 -0.0240469 23.7502 -0.0240469 23.4615 0.0721407L12.6562 3.67393L23.9063 7.42393L35.1563 3.67393L24.3509 0.0721407Z" fill="#1F3130"/>
<path d="M12.6562 48.0002L22.5 44.719V30.1523L12.6562 33.4336V48.0002Z" fill="#1F3130"/>
<path d="M0 43.7054C0 44.3108 0.387282 44.8481 0.961595 45.0395L9.84376 48.0002V33.4336L0 30.1523V43.7054Z" fill="#1F3130"/>
<path d="M25.3125 44.719L35.1563 48.0002V33.4336L25.3125 30.1523V44.719Z" fill="#1F3130"/>
<path d="M37.9688 48.0002L46.8509 45.0395C47.4251 44.848 47.8125 44.3107 47.8125 43.7054V30.1523L37.9688 33.4336V48.0002Z" fill="#1F3130"/>
<path d="M12.6562 21.4689L22.5 24.7502V9.92002L12.6562 6.63867V21.4689Z" fill="#1F3130"/>
<path d="M35.1563 21.4689V6.63867L25.3125 9.92002V24.7502L35.1563 21.4689Z" fill="#1F3130"/>
</svg>
