<svg width="48" height="48" viewBox="0 0 48 48" fill="none" xmlns="http://www.w3.org/2000/svg">
<path d="M5.8125 37.9688V25.5H1.40625C0.62959 25.5 0 26.1296 0 26.9062V46.5938C0 47.3704 0.62959 48 1.40625 48H21.0938C21.8704 48 22.5 47.3704 22.5 46.5938V42.1875H10.0312C7.70508 42.1875 5.8125 40.2949 5.8125 37.9688Z" fill="#1B1F2E"/>
<path d="M46.5938 0H10.0313C9.25459 0 8.625 0.62959 8.625 1.40625V37.9688C8.625 38.7454 9.25459 39.375 10.0313 39.375H46.5938C47.3704 39.375 48 38.7454 48 37.9688V1.40625C48 0.62959 47.3704 0 46.5938 0ZM41.0414 14.417C41.0414 15.1934 40.4118 15.8232 39.6352 15.8232C38.8582 15.8232 38.2289 15.1934 38.2289 14.417V11.7129L26.4709 23.4709C26.1967 23.7454 25.8366 23.8828 25.4766 23.8828C25.1168 23.8828 24.757 23.7454 24.4822 23.4709C23.9329 22.9219 23.9329 22.0313 24.4822 21.4822L36.3064 9.65801H33.4617C32.6851 9.65801 32.0555 9.02871 32.0555 8.25176C32.0555 7.4751 32.6851 6.84551 33.4617 6.84551H39.6352C40.4118 6.84551 41.0414 7.4751 41.0414 8.25176V14.417Z" fill="#1B1F2E"/>
</svg>
