<svg width="48" height="48" viewBox="0 0 48 48" fill="none" xmlns="http://www.w3.org/2000/svg">
<path d="M23.9992 0.00163986C10.7543 0.00163986 0 10.7559 0 24.0008C0 37.2457 10.7543 48 23.9992 48C37.2441 48 47.9984 37.2457 47.9984 24.0008C47.9984 20.3195 47.1654 16.8311 45.6813 13.712L43.2985 16.0948C42.8486 16.5473 42.2351 16.8024 41.597 16.8025H40.9345C41.8775 19.0145 42.4001 21.4469 42.4001 24.0008C42.4001 34.153 34.1514 42.4017 23.9992 42.4017C13.847 42.4017 5.59825 34.153 5.59825 24.0008C5.59825 13.8486 13.847 5.59978 23.9992 5.59978C26.5536 5.59978 28.9866 6.12204 31.1989 7.06541V6.4029C31.1991 5.76482 31.4542 5.15137 31.9067 4.70144L34.2879 2.31874C31.1688 0.834611 27.6804 0.00163986 23.9992 0.00163986ZM39.1768 0.00163986C38.972 0.00774505 38.7774 0.0920706 38.6331 0.237391L33.0348 5.83563C32.9601 5.90996 32.9007 5.9984 32.8602 6.09574C32.8198 6.19307 32.7989 6.29739 32.7989 6.40281V11.673L22.2352 22.2367C21.2668 23.2051 21.2668 24.801 22.2352 25.7694C23.2036 26.7377 24.7948 26.733 25.7632 25.7633L36.3253 15.2012H41.597C41.7024 15.2012 41.8068 15.1804 41.9041 15.1399C42.0015 15.0994 42.0898 15.0402 42.1642 14.9654L47.7624 9.36709C47.8738 9.25503 47.9495 9.11254 47.98 8.9575C48.0105 8.80247 47.9944 8.64186 47.9337 8.49597C47.873 8.35008 47.7705 8.2254 47.6391 8.13768C47.5077 8.04997 47.3533 8.00312 47.1953 8.00306H43.5235L44.161 7.36565C45.1294 6.39728 45.134 4.80597 44.1658 3.8376C43.6816 3.35341 43.0398 3.11106 42.3987 3.11106C41.7576 3.11106 41.1173 3.35353 40.6331 3.8376L39.9972 4.47353V0.797104C39.9968 0.690585 39.9751 0.585204 39.9335 0.487167C39.8918 0.38913 39.831 0.300447 39.7546 0.226226C39.6782 0.152005 39.5878 0.0937697 39.4885 0.0549722C39.3893 0.0161747 39.2833 -0.00105442 39.1768 0.00163986ZM23.9992 11.1981C16.9397 11.1981 11.1965 16.9413 11.1965 24.0008C11.1965 31.0603 16.9397 36.7973 23.9992 36.7973C31.0587 36.7973 36.7956 31.0603 36.7956 24.0008C36.7956 21.9641 36.3072 20.0434 35.4582 18.3322L31.0755 22.7148C31.1514 23.1328 31.1974 23.5614 31.1974 24.0008C31.1974 27.9676 27.966 31.1989 23.9992 31.1989C20.0323 31.1989 16.801 27.9676 16.801 24.0008C16.801 20.034 20.0323 16.8025 23.9992 16.8025C24.4386 16.8025 24.8671 16.8485 25.2851 16.9244L29.6693 12.5402C27.958 11.6894 26.0372 11.1981 23.9992 11.1981Z" fill="#1B1F2E"/>
</svg>
