<svg width="48" height="48" viewBox="0 0 48 48" fill="none" xmlns="http://www.w3.org/2000/svg">
<path d="M33.5992 14.4004H14.3992V33.6004H33.5992V14.4004Z" fill="#1B1F2E"/>
<path d="M45.6 26.4C47.04 26.4 48 25.44 48 24C48 22.8 47.04 21.6 45.6 21.6H43.2V16.8H45.6C47.04 16.8 48 15.84 48 14.4C48 13.2 47.04 12 45.6 12H43.2V9.6C43.2 6.96 41.04 4.8 38.4 4.8H36V2.4C36 1.2 35.04 0 33.6 0C32.4 0 31.2 0.96 31.2 2.4V4.8H26.4V2.4C26.4 1.2 25.44 0 24 0C22.56 0 21.6 0.96 21.6 2.4V4.8H16.8V2.4C16.8 1.2 15.84 0 14.4 0C12.96 0 12 0.96 12 2.4V4.8H9.6C6.96 4.8 4.8 6.96 4.8 9.6V12H2.4C0.96 12 0 12.96 0 14.4C0 15.6 0.96 16.8 2.4 16.8H4.8V21.6H2.4C0.96 21.6 0 22.56 0 24C0 25.2 0.96 26.4 2.4 26.4H4.8V31.2H2.4C0.96 31.2 0 32.16 0 33.6C0 34.8 0.96 36 2.4 36H4.8V38.4C4.8 41.04 6.96 43.2 9.6 43.2H12V45.6C12 46.8 12.96 48 14.4 48C15.84 48 16.8 47.04 16.8 45.6V43.2H21.6V45.6C21.6 46.8 22.56 48 24 48C25.44 48 26.4 47.04 26.4 45.6V43.2H31.2V45.6C31.2 46.8 32.16 48 33.6 48C34.8 48 36 47.04 36 45.6V43.2H38.4C41.04 43.2 43.2 41.04 43.2 38.4V36H45.6C47.04 36 48 35.04 48 33.6C48 32.4 47.04 31.2 45.6 31.2H43.2V26.4H45.6ZM38.4 38.4H9.6V9.6H38.4V38.4Z" fill="#1B1F2E"/>
</svg>
