<svg width="37" height="36" viewBox="0 0 37 36" fill="none" xmlns="http://www.w3.org/2000/svg">
<path d="M30.4471 27.7862C31.6805 26.0312 32.4109 23.8981 32.4109 21.5951C32.4109 17.8265 30.4681 14.5067 27.5349 12.5729C27.5841 11.819 27.6093 11.0316 27.6093 10.1727V5.97787C27.6093 5.20901 27.0157 4.5896 26.2571 4.56679C19.2827 4.37953 15.9078 1.59639 14.7776 0.404987C14.2584 -0.133995 13.3539 -0.136996 12.8287 0.407988C11.7015 1.59579 8.32661 4.37893 1.35106 4.56679C0.5936 4.589 0 5.20841 0 5.97787V10.1727C0 27.7958 11.0323 31.7164 13.2441 32.3232C13.4271 32.373 13.6156 32.3982 13.8041 32.3982C13.9931 32.3982 14.1822 32.373 14.367 32.3226C14.945 32.1629 15.8441 31.8586 16.9251 31.3154C18.344 32.0021 19.9285 32.3982 21.6073 32.3982C23.9103 32.3982 26.0434 31.6677 27.7984 30.4343L32.9397 35.5763C33.2224 35.859 33.5933 36 33.9643 36C34.3352 36 34.7061 35.859 34.9888 35.5763L35.589 34.9761C36.1538 34.4113 36.1538 33.4918 35.589 32.927L30.4471 27.7862ZM14.0483 31.1654C13.8887 31.2086 13.7194 31.2092 13.561 31.1654C11.4969 30.5988 1.1998 26.9249 1.1998 10.1721V5.97727C1.1998 5.86263 1.28143 5.7696 1.38467 5.7666C8.80677 5.56673 12.4692 2.5297 13.6966 1.23687C13.7752 1.15464 13.8365 1.15764 13.9091 1.23387C15.1395 2.5297 18.8013 5.56673 26.2228 5.7666C26.3273 5.7696 26.4089 5.86203 26.4089 5.97727V10.1721C26.4089 10.7873 26.3915 11.3563 26.3657 11.9097C25.9834 11.7212 25.589 11.5549 25.1833 11.4115C25.1983 11.0256 25.2085 10.6228 25.2085 10.1721V8.02336C25.2085 7.41475 24.7307 6.89198 24.1227 6.83256C19.3463 6.34339 16.2703 4.68443 14.5393 3.38499C14.1054 3.04768 13.5016 3.04888 13.0772 3.37839C11.3384 4.68443 8.26239 6.34279 3.48778 6.83256C2.87737 6.89258 2.40021 7.41535 2.40021 8.02336V10.1721C2.40021 25.0937 10.8481 29.022 13.4253 29.8665C13.5514 29.9109 13.6816 29.9326 13.8095 29.9326C13.9313 29.9326 14.0507 29.9127 14.1624 29.8731C14.2758 29.8377 14.4025 29.7933 14.5369 29.7435C14.8868 30.0472 15.2517 30.3335 15.6389 30.591C14.9348 30.8959 14.3712 31.0747 14.0477 31.1642L14.0483 31.1654ZM24.0081 10.1727C24.0081 10.4902 24.0039 10.7849 23.9961 11.0664C23.2266 10.8917 22.429 10.7915 21.6073 10.7915C15.6503 10.7915 10.8036 15.6381 10.8036 21.5951C10.8036 24.2564 11.7754 26.6915 13.3767 28.5767C10.5942 27.5203 3.60121 23.5278 3.60121 10.1733L3.60842 8.02816C8.65912 7.51078 11.938 5.73659 13.8107 4.33931C15.6719 5.73599 18.9502 7.51018 24.0081 8.02456V10.1727ZM12.0041 21.5945C12.0041 16.2996 16.3123 11.9913 21.6073 11.9913C26.9023 11.9913 31.2105 16.2996 31.2105 21.5945C31.2105 26.8895 26.9023 31.1978 21.6073 31.1978C16.3123 31.1978 12.0041 26.8895 12.0041 21.5945ZM29.6962 28.7321L30.372 29.408L29.4207 30.3593L28.7449 29.6835C29.0816 29.3864 29.3991 29.0689 29.6962 28.7321ZM34.7403 34.1274L34.1401 34.7276C34.0453 34.8224 33.8832 34.8224 33.7884 34.7276L30.2688 31.208L31.2207 30.2567L34.7403 33.7762C34.8352 33.8717 34.8352 34.0319 34.7403 34.1274Z" fill="#1B1F2E"/>
<path d="M24.7285 17.6334L19.7414 24.2819L18.43 22.9704C18.1953 22.7358 17.816 22.7358 17.5813 22.9704C17.3466 23.2051 17.3466 23.5844 17.5813 23.8191L19.3819 25.6197C19.4947 25.7326 19.6472 25.7956 19.8062 25.7956C19.82 25.7956 19.8344 25.7956 19.8488 25.7938C20.0223 25.7812 20.182 25.6947 20.2864 25.5555L25.6882 18.3531C25.8875 18.0884 25.8335 17.7121 25.5682 17.5134C25.3035 17.3147 24.9278 17.3687 24.7285 17.6334Z" fill="#1B1F2E"/>
</svg>
