<svg width="12" height="12" viewBox="0 0 12 12" fill="none" xmlns="http://www.w3.org/2000/svg">
<path d="M7.98569 3.78906C8.99072 3.78906 9.95458 4.18831 10.6652 4.89897C11.3759 5.60963 11.7752 6.5735 11.7752 7.57852V11.9996H9.24884V7.57852C9.24884 7.24351 9.11576 6.92223 8.87887 6.68534C8.64199 6.44845 8.3207 6.31537 7.98569 6.31537C7.65068 6.31537 7.32939 6.44845 7.0925 6.68534C6.85562 6.92223 6.72254 7.24351 6.72254 7.57852V11.9996H4.19623V7.57852C4.19623 6.5735 4.59547 5.60963 5.30614 4.89897C6.0168 4.18831 6.98066 3.78906 7.98569 3.78906Z" fill="#1B1F2E"/>
<path d="M2.52631 4.4209H0V11.9998H2.52631V4.4209Z" fill="#1B1F2E"/>
<path d="M1.26315 2.52631C1.96077 2.52631 2.52631 1.96077 2.52631 1.26315C2.52631 0.565533 1.96077 0 1.26315 0C0.565533 0 0 0.565533 0 1.26315C0 1.96077 0.565533 2.52631 1.26315 2.52631Z" fill="#1B1F2E"/>
</svg>
