<svg width="20" height="21" viewBox="0 0 20 21" fill="none" xmlns="http://www.w3.org/2000/svg">
<path d="M9.07173 10.4364C11.7466 10.4364 13.9149 8.26805 13.9149 5.59322C13.9149 2.91838 11.7466 0.75 9.07173 0.75C6.3969 0.75 4.22852 2.91838 4.22852 5.59322C4.22852 8.26805 6.3969 10.4364 9.07173 10.4364Z" stroke="#838694" stroke-width="1.5" stroke-linecap="round" stroke-linejoin="round"/>
<path d="M16.0551 14.0591L12.626 17.4882C12.4904 17.6238 12.3645 17.8756 12.3355 18.0596L12.1514 19.3673C12.0836 19.8419 12.413 20.1713 12.8876 20.1035L14.1952 19.9194C14.3793 19.8904 14.6408 19.7645 14.7668 19.6288L18.1957 16.1999C18.7866 15.609 19.0675 14.9212 18.1957 14.0495C17.3337 13.1874 16.646 13.4683 16.0551 14.0591Z" stroke="#838694" stroke-width="1.5" stroke-miterlimit="10" stroke-linecap="round" stroke-linejoin="round"/>
<path d="M15.5605 14.5532C15.8511 15.5993 16.6648 16.4129 17.7109 16.7035" stroke="#838694" stroke-width="1.5" stroke-miterlimit="10" stroke-linecap="round" stroke-linejoin="round"/>
<path d="M0.75 20.1228C0.75 16.3742 4.4793 13.3423 9.07067 13.3423C10.0781 13.3423 11.0467 13.4876 11.9475 13.7589" stroke="#838694" stroke-width="1.5" stroke-linecap="round" stroke-linejoin="round"/>
</svg>
