<svg width="20" height="18" viewBox="0 0 20 18" fill="none" xmlns="http://www.w3.org/2000/svg">
<path d="M17 4.55554H2.77778C1.79594 4.55554 1 5.35148 1 6.33332V15.2222C1 16.204 1.79594 17 2.77778 17H17C17.9818 17 18.7778 16.204 18.7778 15.2222V6.33332C18.7778 5.35148 17.9818 4.55554 17 4.55554Z" stroke="#6C33D9" stroke-width="2" stroke-linecap="round" stroke-linejoin="round"/>
<path d="M13.4451 17V2.77778C13.4451 2.30628 13.2578 1.8541 12.9244 1.5207C12.591 1.1873 12.1388 1 11.6673 1H8.11176C7.64027 1 7.18808 1.1873 6.85468 1.5207C6.52129 1.8541 6.33398 2.30628 6.33398 2.77778V17" stroke="#6C33D9" stroke-width="2" stroke-linecap="round" stroke-linejoin="round"/>
</svg>
