<svg width="18" height="18" viewBox="0 0 18 18" fill="none" xmlns="http://www.w3.org/2000/svg">
<path d="M10.35 11.95C10.35 13.366 9.734 14.646 8.75 15.518C7.902 16.286 6.782 16.75 5.55 16.75C2.902 16.75 0.75 14.598 0.75 11.95C0.75 9.74199 2.254 7.86999 4.286 7.31799C4.838 8.70999 6.022 9.78199 7.486 10.182C7.886 10.294 8.31 10.35 8.75 10.35C9.19 10.35 9.614 10.294 10.014 10.182C10.23 10.726 10.35 11.326 10.35 11.95Z" stroke="#838694" stroke-width="1.5" stroke-linecap="round" stroke-linejoin="round"/>
<path d="M13.5492 5.55C13.5492 6.174 13.4292 6.774 13.2132 7.318C12.6612 8.71 11.4772 9.782 10.0132 10.182C9.61322 10.294 9.18922 10.35 8.74922 10.35C8.30922 10.35 7.88522 10.294 7.48522 10.182C6.02122 9.782 4.83722 8.71 4.28522 7.318C4.06922 6.774 3.94922 6.174 3.94922 5.55C3.94922 2.902 6.10122 0.75 8.74922 0.75C11.3972 0.75 13.5492 2.902 13.5492 5.55Z" stroke="#838694" stroke-width="1.5" stroke-linecap="round" stroke-linejoin="round"/>
<path d="M16.75 11.95C16.75 14.598 14.598 16.75 11.95 16.75C10.718 16.75 9.598 16.286 8.75 15.518C9.734 14.646 10.35 13.366 10.35 11.95C10.35 11.326 10.23 10.726 10.014 10.182C11.478 9.78199 12.662 8.70999 13.214 7.31799C15.246 7.86999 16.75 9.74199 16.75 11.95Z" stroke="#838694" stroke-width="1.5" stroke-linecap="round" stroke-linejoin="round"/>
</svg>
