<svg width="48" height="55" viewBox="0 0 48 55" fill="none" xmlns="http://www.w3.org/2000/svg">
<path d="M24.0215 54.6094H23.3759C22.7719 54.6094 22.1788 54.5021 21.613 54.2904C15.3909 51.9626 10.3913 48.1899 6.75294 43.0772C3.89579 39.0623 1.91412 34.2628 0.863066 28.8121C-0.870577 19.8215 0.533271 12.0282 0.593886 11.7008C0.904286 10.0248 2.02855 8.63188 3.60133 7.97481L21.7593 0.388828C22.3769 0.130811 23.0294 0 23.6987 0C24.368 0 25.0204 0.130811 25.638 0.388799L43.796 7.97478C45.3688 8.63191 46.4931 10.0248 46.8034 11.7008C46.864 12.0282 48.2677 19.8224 46.5342 28.812C45.4831 34.2628 43.5015 39.0623 40.6444 43.0772C37.006 48.1899 32.0063 51.9625 25.7843 54.2904C25.2185 54.5021 24.6254 54.6094 24.0215 54.6094ZM23.6987 1.875C23.2788 1.875 22.8695 1.95706 22.4821 2.1189L4.32411 9.70488C3.33751 10.1171 2.63224 10.9908 2.43754 12.0422C2.37956 12.3553 1.03683 19.8105 2.70414 28.4571C3.70401 33.6423 5.58021 38.1954 8.28059 41.9901C11.698 46.7923 16.4048 50.3399 22.27 52.5343C22.6249 52.667 22.997 52.7343 23.3758 52.7343H24.0215C24.4003 52.7343 24.7724 52.667 25.1273 52.5342C30.9925 50.3399 35.6992 46.7924 39.1167 41.9901C41.8171 38.1954 43.6933 33.6423 44.6932 28.457C46.3603 19.8113 45.0177 12.3553 44.9598 12.0421C44.7651 10.9908 44.0598 10.1171 43.0732 9.70485L24.9152 2.11887C24.5278 1.95706 24.1185 1.875 23.6987 1.875Z" fill="#5135FF"/>
<path d="M24.0212 50.5161H23.3756C23.2634 50.5161 23.1522 50.4959 23.0471 50.4566C17.604 48.4202 13.2439 45.139 10.0878 40.7039C7.57291 37.1699 5.82146 32.9082 4.88217 28.0371C4.05175 23.7307 4.02292 19.7309 4.14494 17.1339C4.27757 14.312 4.60473 12.5211 4.61859 12.4463C4.67621 12.1351 4.88698 11.874 5.17901 11.752L23.337 4.16597C23.5682 4.06935 23.8285 4.06935 24.0598 4.16597L42.2177 11.752C42.5098 11.874 42.7205 12.1351 42.7781 12.4463C42.792 12.5211 43.1192 14.312 43.2518 17.1339C43.3738 19.7309 43.345 23.7306 42.5146 28.0371C41.5753 32.9082 39.8239 37.1699 37.3089 40.7039C34.1528 45.139 29.7927 48.4202 24.3496 50.4566C24.2447 50.4959 24.1334 50.5161 24.0212 50.5161ZM23.5465 48.6411H23.8503C33.0032 45.161 38.6626 38.1105 40.6735 27.6821C41.963 20.9951 41.2647 15.001 41.0129 13.2807L23.6984 6.04704L6.38358 13.2808C6.28001 13.985 6.10113 15.4036 6.01529 17.2787C5.901 19.7748 5.9329 23.6154 6.73391 27.737C8.75475 38.1355 14.4104 45.1675 23.5465 48.6411Z" fill="#5135FF"/>
<path d="M28.2175 38.9099H19.1806C16.7537 38.9099 14.7793 36.9353 14.7793 34.5083V27.1647C14.7793 24.7377 16.7537 22.7632 19.1806 22.7632H28.2175C30.6443 22.7632 32.6187 24.7377 32.6187 27.1647V34.5083C32.6187 36.9353 30.6443 38.9099 28.2175 38.9099ZM19.1806 24.6382C17.7876 24.6382 16.6543 25.7716 16.6543 27.1647V34.5083C16.6543 35.9015 17.7876 37.0349 19.1806 37.0349H28.2175C29.6105 37.0349 30.7437 35.9014 30.7437 34.5083V27.1647C30.7437 25.7716 29.6104 24.6382 28.2175 24.6382H19.1806ZM23.699 31.9568C22.2668 31.9568 21.1016 30.7916 21.1016 29.3594C21.1016 27.927 22.2668 26.7616 23.699 26.7616C25.1313 26.7616 26.2965 27.927 26.2965 29.3594C26.2965 30.7916 25.1313 31.9568 23.699 31.9568ZM23.699 28.6366C23.3006 28.6366 22.9766 28.9608 22.9766 29.3594C22.9766 29.7578 23.3007 30.0818 23.699 30.0818C24.0974 30.0818 24.4215 29.7577 24.4215 29.3594C24.4215 28.9608 24.0974 28.6366 23.699 28.6366Z" fill="#5135FF"/>
<path d="M29.5366 24.6383C29.0189 24.6383 28.5991 24.2185 28.5991 23.7008V20.8292C28.5991 18.127 26.4007 15.9286 23.6985 15.9286C20.9963 15.9286 18.7979 18.127 18.7979 20.8292V23.7008C18.7979 24.2185 18.3781 24.6383 17.8604 24.6383C17.3426 24.6383 16.9229 24.2185 16.9229 23.7008V20.8292C16.9229 19.0194 17.6276 17.3179 18.9074 16.0381C20.1871 14.7584 21.8886 14.0536 23.6985 14.0536C25.5083 14.0536 27.2098 14.7584 28.4896 16.0381C29.7694 17.3179 30.4741 19.0194 30.4741 20.8292V23.7008C30.4741 24.2185 30.0544 24.6383 29.5366 24.6383Z" fill="#5135FF"/>
<path d="M23.6982 34.7549C23.1805 34.7549 22.7607 34.3352 22.7607 33.8174V31.0193C22.7607 30.5015 23.1805 30.0818 23.6982 30.0818C24.216 30.0818 24.6357 30.5015 24.6357 31.0193V33.8174C24.6357 34.3352 24.216 34.7549 23.6982 34.7549Z" fill="#5135FF"/>
</svg>
