<svg width="60" height="60" viewBox="0 0 60 60" fill="none" xmlns="http://www.w3.org/2000/svg">
<path d="M15.1098 11.0058C15.1098 9.72266 14.7293 8.46836 14.0164 7.40153C13.3035 6.33469 12.2902 5.50323 11.1047 5.01231C9.91923 4.52139 8.61478 4.39307 7.35636 4.64356C6.09793 4.89405 4.94206 5.51211 4.03492 6.41958C3.12779 7.32704 2.51014 8.48314 2.26011 9.74165C2.01007 11.0002 2.13887 12.3046 2.63021 13.4899C3.12156 14.6752 3.95339 15.6882 5.02048 16.4007C6.08758 17.1132 7.34201 17.4933 8.62512 17.4928C10.3446 17.4903 11.9929 16.806 13.2086 15.5899C14.4242 14.3738 15.1079 12.7253 15.1098 11.0058ZM3.77684 11.0058C3.77684 10.0473 4.06103 9.11039 4.59348 8.31345C5.12592 7.5165 5.88272 6.89532 6.76817 6.52846C7.65363 6.16159 8.62798 6.0655 9.56804 6.25235C10.5081 6.4392 11.3717 6.90059 12.0495 7.57818C12.7274 8.25578 13.1891 9.11915 13.3763 10.0591C13.5635 10.9991 13.4678 11.9735 13.1013 12.8591C12.7348 13.7447 12.1139 14.5017 11.3171 15.0345C10.5204 15.5673 9.58357 15.8518 8.62512 15.8522C7.33991 15.8512 6.10759 15.3403 5.19863 14.4317C4.28967 13.5231 3.77833 12.291 3.77684 11.0058Z" fill="#5135FF"/>
<path d="M20.5786 33.7084H12.9642V22.576C12.9701 22.0022 12.8623 21.4328 12.6468 20.901C12.4313 20.3691 12.1125 19.8852 11.7088 19.4773C11.3052 19.0694 10.8246 18.7456 10.295 18.5246C9.76538 18.3036 9.1972 18.1898 8.62332 18.1898C8.04944 18.1898 7.48126 18.3036 6.95164 18.5246C6.42202 18.7456 5.94147 19.0694 5.5378 19.4773C5.13412 19.8852 4.81532 20.3691 4.59985 20.901C4.38437 21.4328 4.2765 22.0022 4.28246 22.576V38.0495C4.2837 39.2007 4.74172 40.3045 5.55597 41.1184C6.37022 41.9323 7.47416 42.3898 8.62543 42.3906H16.2351V53.5234C16.2351 54.6747 16.6925 55.7789 17.5066 56.593C18.3207 57.4071 19.4249 57.8645 20.5762 57.8645C21.7275 57.8645 22.8317 57.4071 23.6458 56.593C24.4599 55.7789 24.9173 54.6747 24.9173 53.5234V38.0495C24.9159 36.899 24.4585 35.7959 23.6452 34.9822C22.8318 34.1684 21.7291 33.7104 20.5786 33.7084ZM23.279 53.5234C23.279 54.2396 22.9945 54.9264 22.4881 55.4329C21.9816 55.9393 21.2948 56.2238 20.5786 56.2238C19.8623 56.2238 19.1755 55.9393 18.669 55.4329C18.1626 54.9264 17.8781 54.2396 17.8781 53.5234V41.5702C17.8781 41.3527 17.7917 41.144 17.6378 40.9902C17.484 40.8364 17.2753 40.7499 17.0578 40.7499H8.62543C7.90945 40.7492 7.22301 40.4644 6.71673 39.9582C6.21046 39.4519 5.92571 38.7654 5.92496 38.0495V22.576C5.92025 22.2184 5.98661 21.8635 6.1202 21.5317C6.25378 21.2 6.45193 20.8981 6.70314 20.6435C6.95435 20.389 7.25361 20.1869 7.58356 20.049C7.91351 19.911 8.26757 19.84 8.6252 19.84C8.98282 19.84 9.33688 19.911 9.66683 20.049C9.99678 20.1869 10.296 20.389 10.5473 20.6435C10.7985 20.8981 10.9966 21.2 11.1302 21.5317C11.2638 21.8635 11.3301 22.2184 11.3254 22.576V34.5291C11.3256 34.7467 11.412 34.9552 11.5658 35.1091C11.7196 35.2629 11.9282 35.3493 12.1457 35.3495H20.5786C21.2945 35.3503 21.9809 35.6351 22.4871 36.1414C22.9934 36.6476 23.2782 37.334 23.279 38.0499V53.5234Z" fill="#5135FF"/>
<path d="M51.3747 4.4447C50.0917 4.4447 48.8375 4.82516 47.7707 5.53796C46.7039 6.25077 45.8725 7.2639 45.3815 8.44925C44.8905 9.6346 44.762 10.9389 45.0123 12.1973C45.2626 13.4557 45.8805 14.6115 46.7877 15.5188C47.6949 16.426 48.8508 17.0438 50.1092 17.2941C51.3675 17.5444 52.6719 17.416 53.8572 16.925C55.0426 16.434 56.0557 15.6025 56.7685 14.5357C57.4813 13.4689 57.8618 12.2147 57.8618 10.9317C57.8599 9.21184 57.1758 7.56292 55.9597 6.34677C54.7435 5.13061 53.0946 4.44656 51.3747 4.4447ZM51.3747 15.7781C50.4162 15.7781 49.4792 15.4939 48.6822 14.9614C47.8852 14.4288 47.264 13.6719 46.8972 12.7864C46.5304 11.9008 46.4344 10.9264 46.6214 9.98625C46.8084 9.04614 47.27 8.18259 47.9478 7.50481C48.6256 6.82702 49.4891 6.36545 50.4292 6.17845C51.3694 5.99145 52.3438 6.08742 53.2294 6.45424C54.1149 6.82105 54.8718 7.44223 55.4044 8.23921C55.9369 9.0362 56.2211 9.9732 56.2211 10.9317C56.2197 12.2166 55.7086 13.4485 54.8 14.357C53.8915 15.2656 52.6596 15.7767 51.3747 15.7781Z" fill="#5135FF"/>
<path d="M51.3749 18.2344C50.224 18.2357 49.1207 18.6936 48.3069 19.5074C47.4932 20.3212 47.0355 21.4246 47.0343 22.5755V33.7083H39.4241C38.2732 33.7096 37.1698 34.1674 36.356 34.9813C35.5422 35.7951 35.0844 36.8985 35.083 38.0494V53.5233C35.083 54.6746 35.5404 55.7788 36.3545 56.5929C37.1686 57.407 38.2728 57.8644 39.4241 57.8644C40.5754 57.8644 41.6796 57.407 42.4937 56.5929C43.3078 55.7788 43.7652 54.6746 43.7652 53.5233V42.3905H51.3749C52.5258 42.3892 53.6293 41.9315 54.4431 41.1176C55.257 40.3038 55.7147 39.2003 55.716 38.0494V22.5759C55.7149 21.4249 55.2572 20.3213 54.4433 19.5074C53.6294 18.6934 52.5259 18.2356 51.3749 18.2344ZM54.0754 38.0489C54.0746 38.7649 53.7899 39.4513 53.2836 39.9576C52.7773 40.4639 52.0909 40.7486 51.3749 40.7494H42.9449C42.7273 40.7494 42.5187 40.8358 42.3648 40.9896C42.211 41.1435 42.1246 41.3521 42.1246 41.5697V53.5228C42.1246 54.239 41.8401 54.9259 41.3336 55.4323C40.8272 55.9388 40.1403 56.2233 39.4241 56.2233C38.7079 56.2233 38.021 55.9388 37.5146 55.4323C37.0081 54.9259 36.7236 54.239 36.7236 53.5228V38.0494C36.7245 37.3334 37.0093 36.6471 37.5155 36.1408C38.0218 35.6346 38.7082 35.3498 39.4241 35.3489H47.8564C48.074 35.3488 48.2825 35.2623 48.4364 35.1085C48.5902 34.9547 48.6766 34.7461 48.6768 34.5286V22.5755C48.672 22.2179 48.7384 21.8629 48.872 21.5312C49.0056 21.1994 49.2037 20.8975 49.4549 20.643C49.7061 20.3885 50.0054 20.1863 50.3354 20.0484C50.6653 19.9105 51.0194 19.8394 51.377 19.8394C51.7346 19.8394 52.0887 19.9105 52.4186 20.0484C52.7486 20.1863 53.0478 20.3885 53.299 20.643C53.5503 20.8975 53.7484 21.1994 53.882 21.5312C54.0156 21.8629 54.0819 22.2179 54.0772 22.5755L54.0754 38.0489Z" fill="#5135FF"/>
<path d="M17.7441 29.7525H42.256C42.4736 29.7525 42.6822 29.6661 42.8361 29.5122C42.9899 29.3584 43.0763 29.1497 43.0763 28.9322V24.6516C43.0763 24.434 42.9899 24.2253 42.8361 24.0715C42.6822 23.9177 42.4736 23.8312 42.256 23.8312H17.7441C17.5266 23.8312 17.3179 23.9177 17.1641 24.0715C17.0103 24.2253 16.9238 24.434 16.9238 24.6516V28.9322C16.9238 29.1497 17.0103 29.3584 17.1641 29.5122C17.3179 29.6661 17.5266 29.7525 17.7441 29.7525ZM18.5626 25.4719H41.4376V28.1119H18.5626V25.4719Z" fill="#5135FF"/>
<path d="M17.7444 16.7813H22.9545V19.0561C22.9546 19.2736 23.0411 19.4822 23.1949 19.636C23.3487 19.7898 23.5573 19.8763 23.7748 19.8764H39.5314C39.7489 19.8763 39.9575 19.7898 40.1113 19.636C40.2651 19.4822 40.3516 19.2736 40.3517 19.0561V9.27564L42.8544 6.61267C42.9639 6.49599 43.037 6.34981 43.0645 6.19212C43.092 6.03444 43.0728 5.87216 43.0092 5.72526C42.9456 5.57837 42.8405 5.45328 42.7067 5.36542C42.5729 5.27756 42.4163 5.23076 42.2562 5.2308H37.0461V2.95642C37.0461 2.73886 36.9597 2.53021 36.8058 2.37637C36.652 2.22253 36.4433 2.13611 36.2258 2.13611H20.4692C20.2516 2.13611 20.043 2.22253 19.8892 2.37637C19.7353 2.53021 19.6489 2.73886 19.6489 2.95642V12.736L17.1467 15.3985C17.0366 15.515 16.9631 15.6612 16.9353 15.8191C16.9075 15.977 16.9265 16.1395 16.9901 16.2867C17.0537 16.4338 17.1591 16.5591 17.2931 16.647C17.4272 16.7349 17.5841 16.7816 17.7444 16.7813ZM37.0461 15.961V6.87142H40.3597L38.9337 8.39064C38.7905 8.5429 38.7109 8.74411 38.7111 8.95314V18.2344H24.5951V16.7813H36.2258C36.3336 16.7813 36.4403 16.76 36.5399 16.7187C36.6395 16.6775 36.73 16.6169 36.8061 16.5407C36.8823 16.4644 36.9427 16.3739 36.9839 16.2742C37.0251 16.1746 37.0462 16.0678 37.0461 15.96V15.961ZM21.0669 13.6228C21.21 13.4705 21.2896 13.2693 21.2895 13.0603V3.77673H35.4055V15.1406H19.6409L21.0669 13.6228Z" fill="#5135FF"/>
<path d="M32.3136 10.5539H24.3818C24.1643 10.5539 23.9556 10.6403 23.8018 10.7942C23.6479 10.948 23.5615 11.1566 23.5615 11.3742C23.5615 11.5918 23.6479 11.8004 23.8018 11.9543C23.9556 12.1081 24.1643 12.1945 24.3818 12.1945H32.3136C32.5311 12.1945 32.7398 12.1081 32.8936 11.9543C33.0474 11.8004 33.1339 11.5918 33.1339 11.3742C33.1339 11.1566 33.0474 10.948 32.8936 10.7942C32.7398 10.6403 32.5311 10.5539 32.3136 10.5539Z" fill="#5135FF"/>
<path d="M32.3136 6.72144H24.3818C24.1643 6.72144 23.9556 6.80786 23.8018 6.9617C23.6479 7.11554 23.5615 7.32419 23.5615 7.54175C23.5615 7.75931 23.6479 7.96796 23.8018 8.1218C23.9556 8.27564 24.1643 8.36206 24.3818 8.36206H32.3136C32.5311 8.36206 32.7398 8.27564 32.8936 8.1218C33.0474 7.96796 33.1339 7.75931 33.1339 7.54175C33.1339 7.32419 33.0474 7.11554 32.8936 6.9617C32.7398 6.80786 32.5311 6.72144 32.3136 6.72144Z" fill="#5135FF"/>
</svg>
